<svg width="56" height="54" viewBox="0 0 56 54" fill="none" xmlns="http://www.w3.org/2000/svg">
<path d="M18.5 0.889952C14.08 2.78995 11.28 6.42997 10.97 8.27997C8.33248 7.14541 5.57488 6.31343 2.74999 5.79996C2.553 5.76778 2.35161 5.77471 2.15731 5.82037C1.96301 5.86603 1.77961 5.94953 1.61757 6.06607C1.45553 6.18261 1.31803 6.3299 1.21292 6.49957C1.10782 6.66925 1.03716 6.85798 1.00498 7.05496C0.97281 7.25194 0.97975 7.45334 1.02541 7.64764C1.07107 7.84194 1.15454 8.02534 1.27108 8.18738C1.38762 8.34941 1.53494 8.4869 1.70461 8.59201C1.87429 8.69712 2.06301 8.76778 2.25999 8.79996C2.33999 8.79996 9.68999 10.09 14.04 13.56C13.63 14.35 13.56 15.09 13.94 15.47C14.53 16.06 15.94 15.58 17.14 14.41C18.34 13.24 18.79 11.8 18.2 11.21C17.8 10.81 17 10.91 16.2 11.39C15.604 10.9063 14.9795 10.4589 14.33 10.05C16.948 10.1186 19.5638 9.84294 22.11 9.22995C28.01 7.78995 32.69 1.28995 32.69 1.28995C32.69 1.28995 23.62 -1.30005 18.5 0.889952Z" fill="black"/>
<path d="M35 4.70996C33.16 6.94996 28.7 11.71 23 13.09L22.27 13.2599C21.8671 14.764 21.0615 16.1297 19.94 17.21C18.5583 18.7006 16.6498 19.5938 14.62 19.7C13.4272 19.7223 12.268 19.3043 11.3641 18.5258C10.4601 17.7473 9.87479 16.6629 9.72003 15.4799H9.62003C6.6882 19.9384 5.26872 25.2218 5.57142 30.5493C5.87412 35.8767 7.88295 40.9654 11.3009 45.063C14.7189 49.1607 19.3647 52.0498 24.5514 53.3033C29.7381 54.5569 35.1905 54.1082 40.1025 52.0238C45.0146 49.9394 49.1256 46.3298 51.8279 41.7285C54.5301 37.1273 55.6802 31.7788 55.1081 26.4735C54.5359 21.1682 52.272 16.1878 48.6508 12.2686C45.0297 8.34929 40.2436 5.69918 35 4.70996Z" fill="black"/>
</svg>
