<svg width="65" height="65" viewBox="0 0 65 65" fill="none" xmlns="http://www.w3.org/2000/svg">
<path d="M32.02 0.72998C25.691 0.72998 19.5042 2.60675 14.2418 6.12296C8.9794 9.63916 4.87789 14.6369 2.45589 20.4841C0.0338845 26.3313 -0.599822 32.7655 0.634905 38.9729C1.86963 45.1803 4.91733 50.8821 9.39261 55.3574C13.8679 59.8327 19.5698 62.8804 25.7771 64.1151C31.9845 65.3498 38.4187 64.7161 44.2659 62.2941C50.1131 59.8721 55.1108 55.7706 58.627 50.5082C62.1433 45.2458 64.02 39.059 64.02 32.73C64.02 24.2431 60.6486 16.1037 54.6475 10.1025C48.6463 4.10138 40.507 0.72998 32.02 0.72998ZM32.02 60.73C26.4822 60.73 21.0686 59.0878 16.4641 56.0111C11.8595 52.9344 8.27065 48.5614 6.1514 43.4451C4.03215 38.3288 3.47766 32.6989 4.55805 27.2674C5.63843 21.836 8.30517 16.8468 12.221 12.931C16.1369 9.0151 21.126 6.34836 26.5575 5.26797C31.989 4.18759 37.6188 4.74207 42.7352 6.86133C47.8515 8.98058 52.2245 12.5694 55.3012 17.174C58.3779 21.7786 60.02 27.1921 60.02 32.73C60.02 40.156 57.0701 47.2779 51.819 52.529C46.568 57.78 39.4461 60.73 32.02 60.73Z" fill="black"/>
<path d="M21.25 27.75V29.75H15.6V32H20.79V33.83H15.6V36.46H21.37V38.46H13.24V27.75H21.25Z" fill="black"/>
<path d="M30.97 27.75V29.75H25.32V32H30.5V33.83H25.31V36.46H31.08V38.46H22.95V27.75H30.97Z" fill="black"/>
<path d="M40.6899 27.75V29.75H35.0399V32H40.2299V33.83H35.0399V36.46H40.8099V38.46H32.6799V27.75H40.6899Z" fill="black"/>
<path d="M50.41 27.75V29.75H44.76V32H49.95V33.83H44.76V36.46H50.5V38.46H42.4V27.75H50.41Z" fill="black"/>
</svg>
