<svg width="137" height="153" viewBox="0 0 137 153" fill="none" xmlns="http://www.w3.org/2000/svg">
<path d="M133.5 40.66C132.98 39.5825 132.396 38.5373 131.75 37.53C130.762 36.0171 129.634 34.6008 128.38 33.3C126.673 31.539 124.739 30.0124 122.63 28.76L82.22 4.76001C81.69 4.45001 81.15 4.15 80.6 3.87C80.05 3.59 79.48 3.33003 78.92 3.09003C76.1201 1.90635 73.1428 1.19662 70.11 0.98999C69.51 0.98999 68.9 0.929993 68.31 0.929993C63.4106 0.935868 58.6028 2.25871 54.39 4.76001L13.98 28.76C9.79657 31.2715 6.33612 34.8251 3.93664 39.0737C1.53715 43.3223 0.280673 48.1206 0.289968 53V101C0.290855 104.925 1.11044 108.806 2.69628 112.396C4.28212 115.986 6.59936 119.206 9.49999 121.85C9.94999 122.26 10.42 122.66 10.89 123.04C11.8585 123.804 12.8775 124.503 13.94 125.13L54.35 149.13C54.88 149.44 55.43 149.74 55.98 150.02C56.53 150.3 57.09 150.56 57.65 150.8C61.0108 152.219 64.6219 152.95 68.27 152.95C71.9181 152.95 75.5292 152.219 78.89 150.8C80.0261 150.318 81.1286 149.76 82.19 149.13L122.6 125.13C124.709 123.878 126.643 122.351 128.35 120.59C130.44 118.427 132.168 115.942 133.47 113.23C133.73 112.69 133.98 112.14 134.2 111.58C135.571 108.197 136.274 104.58 136.27 100.93V53C136.28 48.7314 135.334 44.5147 133.5 40.66V40.66Z" fill="white"/>
<path d="M116.5 39.08L76.09 15.08C73.7306 13.6756 71.0357 12.9343 68.29 12.9343C65.5442 12.9343 62.8494 13.6756 60.49 15.08L20.08 39.08C17.6849 40.5244 15.7071 42.5675 14.3412 45.0082C12.9753 47.4489 12.2684 50.2032 12.29 53V101C12.2754 103.791 12.9867 106.538 14.3542 108.972C15.7216 111.405 17.6982 113.441 20.09 114.88L60.5 138.88C62.8571 140.281 65.5482 141.02 68.29 141.02C71.0318 141.02 73.7229 140.281 76.08 138.88L116.49 114.88C118.882 113.441 120.858 111.405 122.226 108.972C123.593 106.538 124.305 103.791 124.29 101V53C124.312 50.2032 123.605 47.4489 122.239 45.0082C120.873 42.5675 118.895 40.5244 116.5 39.08V39.08Z" fill="white"/>
<path d="M116.5 39.08L76.09 15.08C73.7317 13.6725 71.0364 12.9294 68.29 12.9294C65.5436 12.9294 62.8483 13.6725 60.49 15.08L20.08 39.08C17.6849 40.5244 15.7071 42.5675 14.3412 45.0082C12.9753 47.4489 12.2684 50.2032 12.29 53V101C12.2754 103.791 12.9867 106.538 14.3542 108.972C15.7216 111.405 17.6982 113.441 20.09 114.88L60.5 138.88C62.8571 140.281 65.5482 141.02 68.29 141.02C71.0318 141.02 73.7229 140.281 76.08 138.88L116.49 114.88C118.882 113.441 120.858 111.405 122.226 108.972C123.593 106.538 124.305 103.791 124.29 101V53C124.312 50.2032 123.605 47.4489 122.239 45.0082C120.873 42.5675 118.895 40.5244 116.5 39.08V39.08ZM61.91 136.34L21.5 112.34C19.537 111.149 17.9152 109.471 16.7921 107.468C15.669 105.465 15.0827 103.206 15.09 100.91V53C15.0758 50.6971 15.6588 48.4299 16.7823 46.4196C17.9057 44.4093 19.5312 42.7247 21.5 41.53L61.91 17.53C63.8386 16.3778 66.0433 15.7694 68.29 15.7694C70.5366 15.7694 72.7413 16.3778 74.67 17.53L115.08 41.53C116.724 42.527 118.131 43.8699 119.203 45.4656C120.276 47.0612 120.988 48.8714 121.29 50.77C119.95 47.91 116.93 47.14 113.41 49.19L75.18 72.81C70.41 75.59 66.89 78.72 66.89 84.47V131.58C66.89 135.02 68.28 137.25 70.41 137.89C69.7113 138.025 69.0016 138.095 68.29 138.1C66.0439 138.097 63.8401 137.489 61.91 136.34V136.34Z" fill="#283037"/>
<path d="M105.9 105.57L95.84 111.57C95.7087 111.622 95.5952 111.711 95.5135 111.827C95.4319 111.942 95.3855 112.079 95.38 112.22V114.86C95.38 115.18 95.59 115.31 95.86 115.16L106.08 109C106.195 108.908 106.283 108.788 106.335 108.651C106.388 108.513 106.403 108.365 106.38 108.22V105.9C106.38 105.55 106.17 105.42 105.9 105.57Z" fill="#4DA825"/>
<path d="M84.5 83.4099C84.82 83.2399 85.09 83.41 85.09 83.87V87.35C86.3008 86.7985 87.6524 86.6344 88.96 86.88C89.21 86.95 89.32 87.29 89.21 87.69L88.45 90.77C88.3928 91.005 88.2716 91.2196 88.0999 91.39C88.0409 91.4494 87.9735 91.4998 87.9 91.54C87.8083 91.5894 87.7027 91.607 87.5999 91.59C86.3256 91.3082 84.9917 91.5228 83.87 92.19C83.0657 92.5514 82.3799 93.1328 81.8916 93.867C81.4033 94.6013 81.1323 95.4585 81.11 96.34C81.11 97.92 81.94 98.4 84.74 98.45C88.48 98.51 90.09 100.14 90.13 103.9C90.0899 105.84 89.6282 107.749 88.7769 109.493C87.9256 111.237 86.7051 112.775 85.2 114L85.27 117.45C85.258 117.653 85.1971 117.849 85.0926 118.024C84.9882 118.198 84.8431 118.344 84.67 118.45L82.67 119.63C82.35 119.79 82.08 119.63 82.07 119.18V115.79C80.6244 116.495 78.9721 116.651 77.42 116.23C77.2 116.15 77.11 115.84 77.2 115.48L77.94 112.36C77.9988 112.115 78.1232 111.89 78.3 111.71C78.3583 111.657 78.422 111.61 78.49 111.57C78.5416 111.546 78.598 111.533 78.655 111.533C78.712 111.533 78.7683 111.546 78.82 111.57C80.2622 111.959 81.7995 111.765 83.0999 111.03C84.017 110.587 84.7959 109.902 85.3527 109.049C85.9095 108.196 86.2232 107.208 86.26 106.19C86.26 104.44 85.26 103.71 82.99 103.69C80.05 103.69 77.32 103.12 77.27 98.8C77.3046 96.9495 77.7474 95.1296 78.5668 93.4701C79.3862 91.8106 80.5619 90.3525 82.01 89.2V85.7199C82.0083 85.5073 82.0618 85.2979 82.1652 85.1122C82.2686 84.9264 82.4184 84.7706 82.5999 84.6599L84.5 83.4099Z" fill="white"/>
</svg>
