<svg width="139" height="153" viewBox="0 0 139 153" fill="none" xmlns="http://www.w3.org/2000/svg">
<path d="M135.5 38.67C133.622 35.3422 130.91 32.5609 127.63 30.6L80.63 3.45996C77.2774 1.63597 73.5216 0.68042 69.705 0.68042C65.8884 0.68042 62.1325 1.63597 58.78 3.45996L11.78 30.6C8.51964 32.5887 5.81055 35.3638 3.90095 38.6711C1.99135 41.9784 0.942314 45.7121 0.849976 49.53V103.82C0.946845 107.637 1.99779 111.369 3.90696 114.675C5.81613 117.982 8.52275 120.758 11.78 122.75L58.78 149.89C62.1302 151.721 65.887 152.681 69.705 152.681C73.523 152.681 77.2797 151.721 80.63 149.89L127.63 122.75C130.885 120.755 133.589 117.979 135.498 114.673C137.407 111.367 138.459 107.636 138.56 103.82V49.53C138.507 45.7048 137.452 41.9603 135.5 38.67Z" fill="white"/>
<path d="M125.12 108.68C126.007 107.209 126.506 105.537 126.57 103.82V49.53C126.507 47.8163 126.008 46.1469 125.12 44.6801L69.6899 76.6801L125.12 108.68Z" fill="#00599C"/>
<path d="M74.62 139.5L121.62 112.35C123.072 111.442 124.27 110.179 125.1 108.68L69.67 76.6801L14.25 108.68C15.0764 110.181 16.2747 111.445 17.73 112.35L64.73 139.5C66.2615 140.281 67.9561 140.688 69.675 140.688C71.394 140.688 73.0885 140.281 74.62 139.5V139.5Z" fill="#004482"/>
<path d="M125.12 44.6801C124.293 43.1764 123.095 41.9095 121.64 41L74.64 13.85C73.1136 13.076 71.4263 12.6727 69.715 12.6727C68.0036 12.6727 66.3163 13.076 64.79 13.85L17.79 41C16.3573 41.9361 15.1647 43.1957 14.3083 44.6774C13.452 46.1591 12.9559 47.8214 12.86 49.53V103.82C12.9177 105.538 13.417 107.212 14.31 108.68L69.73 76.6801L125.12 44.6801Z" fill="#659AD2"/>
<path d="M69.69 114.59C63.0324 114.595 56.4908 112.848 50.7229 109.523C44.9549 106.198 40.164 101.413 36.8318 95.6493C33.4996 89.8856 31.7436 83.3462 31.7404 76.6886C31.7371 70.031 33.4867 63.4899 36.8133 57.7229C40.1398 51.9559 44.926 47.1664 50.6907 43.8359C56.4554 40.5054 62.9953 38.7513 69.6529 38.75C76.3105 38.7487 82.8511 40.5003 88.6171 43.8285C94.3831 47.1567 99.1712 51.9443 102.5 57.71L86.09 67.2C83.9988 63.5778 80.7707 60.7468 76.9065 59.1462C73.0424 57.5456 68.758 57.2649 64.718 58.3474C60.678 59.4299 57.108 61.8153 54.5618 65.1335C52.0157 68.4518 50.6355 72.5174 50.6355 76.7C50.6355 80.8825 52.0157 84.9482 54.5618 88.2665C57.108 91.5847 60.678 93.9701 64.718 95.0526C68.758 96.1351 73.0424 95.8543 76.9065 94.2537C80.7707 92.6531 83.9988 89.8221 86.09 86.2L102.5 95.6899C99.1568 101.43 94.369 106.195 88.6129 109.511C82.8568 112.827 76.3329 114.578 69.69 114.59V114.59Z" fill="white"/>
</svg>
