<svg width="139" height="153" viewBox="0 0 139 153" fill="none" xmlns="http://www.w3.org/2000/svg">
<path d="M135.5 38.94C133.627 35.6085 130.913 32.8261 127.63 30.87L80.63 3.71997C77.2786 1.89245 73.5223 0.934875 69.705 0.934875C65.8877 0.934875 62.1314 1.89245 58.78 3.71997L11.78 30.86C8.51969 32.8487 5.8106 35.6239 3.901 38.9312C1.9914 42.2384 0.942314 45.9721 0.849976 49.79V104.08C0.942117 107.89 1.98478 111.616 3.88312 114.92C5.78146 118.224 8.4753 121.002 11.72 123L58.72 150.14C62.0725 151.964 65.8284 152.92 69.645 152.92C73.4616 152.92 77.2175 151.964 80.57 150.14L127.57 123C130.822 121.007 133.525 118.234 135.434 114.931C137.342 111.629 138.396 107.903 138.5 104.09V49.8C138.466 45.98 137.432 42.2357 135.5 38.94Z" fill="white"/>
<path d="M125.09 108.94C125.978 107.473 126.478 105.804 126.54 104.09V49.8C126.476 48.0833 125.977 46.411 125.09 44.94L69.66 76.94L125.09 108.94Z" fill="#00599C"/>
<path d="M74.59 139.77L121.59 112.62C123.047 111.712 124.245 110.445 125.07 108.94L69.64 76.94L14.22 108.94C15.045 110.445 16.2434 111.712 17.7 112.62L64.7 139.77C66.2315 140.551 67.9261 140.957 69.645 140.957C71.364 140.957 73.0585 140.551 74.59 139.77Z" fill="#004482"/>
<path d="M125.09 44.94C124.26 43.4413 123.062 42.1784 121.61 41.27L74.61 14.12C73.0836 13.346 71.3964 12.9427 69.685 12.9427C67.9736 12.9427 66.2864 13.346 64.76 14.12L17.76 41.27C16.3273 42.2061 15.1347 43.4657 14.2784 44.9474C13.422 46.4291 12.9259 48.0913 12.83 49.8V104.09C12.8925 105.804 13.3916 107.473 14.28 108.94L69.7 76.94L125.09 44.94Z" fill="#659AD2"/>
<path d="M69.66 114.86C63.0022 114.862 56.4612 113.111 50.6948 109.783C44.9283 106.455 40.1397 101.668 36.8104 95.9023C33.4811 90.1367 31.7285 83.5962 31.7288 76.9384C31.729 70.2806 33.4823 63.7402 36.8121 57.9749C40.1419 52.2095 44.9309 47.4226 50.6976 44.0952C56.4644 40.7679 63.0055 39.0175 69.6633 39.02C76.3211 39.0226 82.8609 40.778 88.6251 44.1097C94.3892 47.4415 99.1746 52.2321 102.5 58L86.09 67.5C84.003 63.8725 80.7767 61.0355 76.9121 59.4296C73.0475 57.8236 68.7607 57.5386 64.7175 58.6187C60.6742 59.6987 57.1007 62.0836 54.5518 65.4028C52.0028 68.7221 50.6211 72.79 50.6211 76.975C50.6211 81.16 52.0028 85.228 54.5518 88.5472C57.1007 91.8664 60.6742 94.2512 64.7175 95.3313C68.7607 96.4114 73.0475 96.1264 76.9121 94.5205C80.7767 92.9145 84.003 90.0775 86.09 86.45L102.5 95.91C99.1605 101.664 94.3707 106.442 88.6085 109.767C82.8462 113.092 76.3128 114.848 69.66 114.86Z" fill="white"/>
<path d="M107.58 74.84H103.37V70.63H99.15V74.84H94.94V79.05H99.15V83.26H103.37V79.05H107.58V74.84Z" fill="white"/>
<path d="M123.38 74.84H119.16V70.63H114.95V74.84H110.74V79.05H114.95V83.26H119.16V79.05H123.38V74.84Z" fill="white"/>
</svg>
