<svg width="139" height="153" viewBox="0 0 139 153" fill="none" xmlns="http://www.w3.org/2000/svg">
<path d="M135.63 38.86C133.595 35.3532 130.661 32.4533 127.13 30.46L104.36 17.35L81.6501 4.27004C78.0004 2.06586 73.8124 0.913367 69.5489 0.939838C65.2853 0.966309 61.1121 2.17068 57.49 4.42C54.38 6.24 44.49 11.96 34.85 17.48C25.85 22.63 16.65 27.95 12.32 30.48C8.75027 32.4606 5.79116 35.381 3.76383 38.9245C1.7365 42.4679 0.7184 46.4989 0.82004 50.58V103.3C0.783352 106.659 1.46526 109.986 2.82004 113.06C3.02624 113.606 3.27014 114.138 3.55002 114.65C5.59561 118.265 8.57209 121.265 12.17 123.34C15.72 125.4 22.47 129.28 29.63 133.34C40.92 139.83 53.7101 147.19 57.3401 149.34C57.7901 149.6 58.24 149.85 58.72 150.1C62.2567 152.01 66.2321 152.959 70.25 152.854C74.268 152.749 78.1882 151.592 81.62 149.5C90.98 144.08 100.52 138.59 109.75 133.28C115.517 129.947 121.28 126.613 127.04 123.28C130.721 121.224 133.747 118.17 135.77 114.47C137.63 111.007 138.586 107.131 138.55 103.2V50.54C138.631 46.4565 137.623 42.425 135.63 38.86V38.86Z" fill="white"/>
<path d="M126.63 50.54C126.682 48.5553 126.198 46.5932 125.23 44.86C124.253 43.1779 122.836 41.7947 121.13 40.86L75.65 14.67C73.8369 13.5271 71.7336 12.9289 69.5903 12.9466C67.4471 12.9643 65.354 13.5973 63.56 14.77C57.56 18.31 27.3 35.63 18.33 40.86C16.5906 41.7956 15.1507 43.2033 14.176 44.9211C13.2012 46.6389 12.7312 48.597 12.82 50.57V103.3C12.7862 105.244 13.2473 107.164 14.16 108.88C15.1488 110.613 16.5903 112.044 18.33 113.02C27.33 118.24 57.53 135.53 63.56 139.1C65.3494 140.284 67.4433 140.924 69.5887 140.944C71.7342 140.963 73.8394 140.361 75.65 139.21C90.8 130.44 105.98 121.75 121.13 113.02C122.883 112.062 124.329 110.626 125.3 108.88C126.21 107.163 126.667 105.243 126.63 103.3V50.54Z" fill="#9A4993"/>
<path d="M69.87 76.73L14.08 108.84C15.0748 110.571 16.5191 112.002 18.26 112.98C27.26 118.21 57.46 135.49 63.49 139.07C65.2804 140.252 67.3748 140.891 69.5202 140.909C71.6656 140.926 73.7703 140.322 75.58 139.17C90.7334 130.39 105.893 121.667 121.06 113C122.815 112.045 124.262 110.608 125.23 108.86L69.87 76.73Z" fill="#6A1577"/>
<path d="M53.35 86.23C54.9988 89.1242 57.3866 91.5287 60.2693 93.1977C63.152 94.8666 66.4261 95.7402 69.7571 95.729C73.088 95.7178 76.3563 94.8223 79.2277 93.134C82.0991 91.4458 84.4706 89.0253 86.1 86.12L69.87 76.73L53.35 86.23Z" fill="#6A1577"/>
<path d="M126.63 50.54C126.682 48.5553 126.198 46.5932 125.23 44.86L69.87 76.73L125.3 108.84C126.208 107.126 126.666 105.209 126.63 103.27V50.54Z" fill="#813084"/>
<path d="M86.1 86.12C84.0695 89.7501 80.8954 92.6066 77.0722 94.2447C73.2489 95.8827 68.9913 96.2102 64.9625 95.1761C60.9337 94.1421 57.36 91.8045 54.7982 88.5277C52.2365 85.2508 50.8305 81.2187 50.7993 77.0594C50.7681 72.9002 52.1133 68.8474 54.6256 65.5324C57.1379 62.2175 60.6761 59.8266 64.6889 58.7322C68.7017 57.6377 72.9638 57.9013 76.8112 59.4817C80.6586 61.0622 83.8753 63.8708 85.96 67.4699L102.41 58C98.2381 50.803 91.8065 45.1851 84.1139 42.0189C76.4214 38.8527 67.8985 38.3153 59.8692 40.4902C51.8399 42.6652 44.7536 47.4307 39.7108 54.0467C34.668 60.6626 31.9511 68.7586 31.982 77.0773C32.013 85.3959 34.79 93.4715 39.8819 100.05C44.9738 106.628 52.0954 111.341 60.1407 113.456C68.186 115.571 76.7046 114.97 84.3734 111.747C92.0421 108.523 98.4318 102.858 102.55 95.63L86.1 86.12ZM106.89 68H103.14V86.13H106.89V68ZM115.2 68H111.5V86.13H115.25L115.2 68Z" fill="white"/>
<path d="M118.25 71H100.13V74.75H118.25V71ZM118.25 79.28H100.13V83H118.25V79.28Z" fill="white"/>
</svg>
