<svg width="138" height="153" viewBox="0 0 138 153" fill="none" xmlns="http://www.w3.org/2000/svg">
<path d="M134.58 4.06998C133.455 2.84027 132.086 1.85839 130.561 1.18692C129.035 0.515455 127.387 0.169097 125.72 0.169956H12.86C11.1899 0.163302 9.53687 0.505336 8.00655 1.17417C6.47622 1.843 5.1023 2.82389 3.97279 4.05411C2.84329 5.28433 1.98304 6.73683 1.44704 8.31858C0.91103 9.90033 0.71107 11.5765 0.860001 13.24L11.13 128.44C11.346 130.871 12.2983 133.179 13.8599 135.055C15.4215 136.931 17.5182 138.286 19.87 138.94L65.96 151.74C68.0617 152.313 70.2784 152.313 72.38 151.74L118.6 138.92C120.95 138.267 123.046 136.913 124.607 135.039C126.169 133.165 127.122 130.86 127.34 128.43L137.63 13.24C137.781 11.5838 137.588 9.9144 137.063 8.3364C136.538 6.7584 135.693 5.3059 134.58 4.06998Z" fill="white"/>
<path d="M23.13 127.38L12.86 12.17H125.72L115.44 127.36L69.22 140.17L23.13 127.38Z" fill="#264DE4"/>
<path d="M106.64 120L115.42 21.56H69.29V130.38L106.64 120Z" fill="#2965F1"/>
<path d="M36.41 64.32L37.67 78.45H69.29V64.32H36.41ZM35.15 49.85H69.29V35.72H33.86L35.15 49.85ZM69.29 101H69.23L53.5 96.78L52.5 85.52H38.3L40.3 107.7L69.3 115.7H69.36L69.29 101Z" fill="#EBEBEB"/>
<path d="M69.24 64.32V78.45H86.64L85 96.78L69.24 101V115.7L98.24 107.7L98.45 105.31L101.77 68.12L102.12 64.32L104.67 35.72H69.27V49.85H89.18L87.9 64.32H69.24Z" fill="white"/>
</svg>
