<svg width="282" height="121" viewBox="0 0 282 121" fill="none" xmlns="http://www.w3.org/2000/svg">
<path d="M280.9 47.6301V47.5101C278.9 32.4201 271.2 20.25 258.14 11.32C248.843 5.01746 237.842 1.7063 226.61 1.83001C222.25 1.85315 217.9 2.25473 213.61 3.03009C199.17 5.58009 187.69 11.1801 178.2 20.4201C174.915 16.2715 170.993 12.6701 166.58 9.75006C157.718 3.7423 147.236 0.578429 136.53 0.680111C126.472 0.732447 116.55 2.99955 107.467 7.32037C98.385 11.6412 90.3658 17.9097 83.98 25.6801C82.7561 25.2989 81.4819 25.1033 80.2 25.1H35.5C33.3865 25.1006 31.3013 25.5858 29.4047 26.5185C27.5082 27.4512 25.8507 28.8064 24.56 30.48L22.02 33.74C21.84 33.97 21.67 34.21 21.51 34.45C21.0651 35.1322 20.6867 35.8555 20.38 36.61H16.61C14.4965 36.6106 12.4113 37.0958 10.5147 38.0285C8.61813 38.9612 6.96072 40.3165 5.66998 41.99L3.13 45.2501C2.95 45.4801 2.77999 45.72 2.61999 45.96C1.34693 47.8251 0.610501 50.004 0.491027 52.259C0.371553 54.5139 0.873646 56.7585 1.9425 58.7476C3.01136 60.7368 4.60593 62.3941 6.55231 63.539C8.49868 64.6839 10.7221 65.2723 12.98 65.24H30.81C30.9156 66.9886 31.3965 68.6939 32.22 70.24C33.2885 72.2256 34.8762 73.8837 36.8136 75.0373C38.7509 76.1909 40.9652 76.7967 43.22 76.7901L69.67 76.9101C71.8948 89.8796 79.0645 101.48 89.67 109.27C99.3989 116.633 111.3 120.552 123.5 120.41C126.423 120.404 129.343 120.207 132.24 119.82C146.722 118.006 160.126 111.219 170.16 100.62C172.022 102.814 174.051 104.86 176.23 106.74C186.61 115.63 199.42 120.31 214.3 120.63H214.57C215.028 120.629 215.485 120.602 215.94 120.55C216.94 120.44 217.94 120.35 219 120.25C221.34 120.05 224 119.81 226.76 119.25H226.98C240.701 116.624 253.308 109.914 263.15 100C277.5 85.4901 283.5 67.8701 280.9 47.6301Z" fill="white"/>
<path d="M31.91 41.7399C31.41 41.7399 31.29 41.49 31.54 41.12L34.16 37.7399C34.3299 37.5403 34.5415 37.3804 34.78 37.2716C35.0185 37.1627 35.2779 37.1075 35.54 37.1099H80.2C80.7 37.1099 80.83 37.49 80.58 37.87L78.45 41.12C78.1489 41.5254 77.6995 41.795 77.2 41.87L31.91 41.7399Z" fill="#00ACD7"/>
<path d="M13.02 53.2499C12.52 53.2499 12.4001 53 12.6501 52.63L15.27 49.2499C15.4399 49.0503 15.6515 48.8904 15.89 48.7816C16.1284 48.6727 16.3879 48.6175 16.6501 48.6199H73.7C73.7967 48.606 73.8954 48.6172 73.9865 48.6524C74.0777 48.6876 74.1582 48.7457 74.2205 48.821C74.2827 48.8963 74.3246 48.9863 74.342 49.0825C74.3594 49.1786 74.3519 49.2776 74.32 49.3699L73.32 52.3699C73.2461 52.6034 73.0949 52.8048 72.8914 52.9411C72.6879 53.0774 72.4441 53.1405 72.2 53.1199L13.02 53.2499Z" fill="#00ACD7"/>
<path d="M43.3 64.76C42.8 64.76 42.67 64.39 42.92 64.01L44.67 60.88C44.8081 60.6686 44.9923 60.4914 45.2089 60.3615C45.4254 60.2315 45.6685 60.1524 45.92 60.13H70.92C71.42 60.13 71.67 60.51 71.67 61.01L71.42 64.01C71.4058 64.2388 71.3085 64.4544 71.1465 64.6165C70.9844 64.7785 70.7687 64.8758 70.54 64.89L43.3 64.76Z" fill="#00ACD7"/>
<path d="M173.16 39.49C165.28 41.49 159.9 42.99 152.16 45C150.28 45.5 150.16 45.62 148.53 43.75C146.962 41.7326 144.95 40.1038 142.65 38.99C134.77 35.11 127.14 36.24 120.01 40.87C115.955 43.3328 112.634 46.8359 110.39 51.0157C108.146 55.1955 107.062 59.8997 107.25 64.64C107.37 74.64 114.25 82.9 124.14 84.28C132.64 85.41 139.77 82.4 145.4 76.02C146.53 74.65 147.53 73.15 148.78 71.39H124.62C121.99 71.39 121.36 69.77 122.24 67.64C123.87 63.76 126.87 57.26 128.62 54C128.889 53.3974 129.329 52.8869 129.886 52.5315C130.442 52.1761 131.09 51.9913 131.75 52H177.29C177.04 55.38 177.04 58.76 176.54 62.14C175.237 71.0463 171.708 79.4799 166.28 86.66C157.28 98.54 145.51 105.92 130.62 107.92C118.36 109.55 106.98 107.17 96.97 99.67C92.5217 96.4124 88.8083 92.2556 86.0708 87.4697C83.3333 82.6838 81.6329 77.3757 81.08 71.89C79.45 58.26 83.46 46 91.71 35.24C100.175 23.8091 112.702 16.0603 126.71 13.5899C138.47 11.4699 149.71 12.8399 159.87 19.7199C166.348 24.0324 171.398 30.1722 174.38 37.36C175.16 38.49 174.66 39.12 173.16 39.49Z" fill="#00ACD7"/>
<path d="M214.57 108.68C203.18 108.43 192.8 105.17 184.04 97.6801C176.741 91.5395 171.928 82.9511 170.5 73.5201C168.25 59.3801 172.13 46.87 180.63 35.74C189.77 23.74 200.78 17.47 215.63 14.85C228.4 12.59 240.41 13.85 251.29 21.23C261.17 27.98 267.29 37.11 268.93 49.12C271.06 66.01 266.18 79.7801 254.54 91.5401C246.388 99.7842 235.928 105.363 224.54 107.54C221.2 108.18 217.82 108.3 214.57 108.68ZM244.34 58.13C244.298 56.7473 244.174 55.3682 243.97 54C241.72 41.62 230.33 34.61 218.45 37.36C206.81 39.99 199.31 47.36 196.55 59.13C195.413 63.7956 195.94 68.7119 198.042 73.0298C200.143 77.3478 203.687 80.7964 208.06 82.7801C211.296 84.2357 214.826 84.9227 218.371 84.7874C221.917 84.6521 225.384 83.698 228.5 82C238.34 76.9 243.72 68.89 244.34 58.13Z" fill="#00ACD7"/>
</svg>
