<svg width="138" height="153" viewBox="0 0 138 153" fill="none" xmlns="http://www.w3.org/2000/svg">
<path d="M133.96 4.06998C132.835 2.84027 131.466 1.85839 129.941 1.18692C128.415 0.515455 126.767 0.169097 125.1 0.169956H12.35C10.6799 0.163302 9.02684 0.505336 7.49651 1.17417C5.96618 1.843 4.5923 2.82389 3.46279 4.05411C2.33328 5.28433 1.47301 6.73683 0.937 8.31858C0.400993 9.90033 0.201064 11.5765 0.349995 13.24L10.6 128.24C10.8163 130.661 11.7631 132.96 13.3149 134.832C14.8667 136.703 16.9504 138.059 19.29 138.72L65.29 151.72C66.351 152.018 67.4479 152.169 68.55 152.17C69.6481 152.169 70.7411 152.021 71.8 151.73L118.05 138.73C120.395 138.072 122.484 136.716 124.04 134.842C125.595 132.968 126.544 130.666 126.76 128.24L137.01 13.24C137.165 11.5835 136.974 9.91301 136.449 8.33438C135.924 6.75576 135.076 5.30355 133.96 4.06998V4.06998Z" fill="white"/>
<path d="M22.6 127.17L12.35 12.17H125.1L114.85 127.17L68.6 140.17" fill="#E34F26"/>
<path d="M68.85 130.17L106.1 119.92L114.85 21.42H68.85" fill="#EF652A"/>
<path d="M68.85 64.17H50.1L48.85 49.67H68.85V35.67H33.35L33.6 39.42L37.1 78.42H68.85V64.17ZM68.85 100.92H68.6L52.85 96.67L51.85 85.42H37.85L39.6 107.67L68.6 115.67H68.85V100.92Z" fill="#EBEBEB"/>
<path d="M68.6 64.17V78.42H86.1L84.35 96.67L68.6 100.92V115.67L97.6 107.67L97.85 105.17L101.1 67.92L101.6 64.17H68.6ZM68.6 35.67V49.67H102.85L103.1 46.67L103.85 39.42L104.1 35.67H68.6Z" fill="white"/>
</svg>
