<svg width="120" height="154" viewBox="0 0 120 154" fill="none" xmlns="http://www.w3.org/2000/svg">
<path d="M111.5 117.62C110.098 115.409 108.166 113.584 105.88 112.31C107.896 111.07 109.779 109.626 111.5 108C117.22 102.49 119.87 95.62 118.97 88.68C117.59 77.97 108.19 70.21 96.63 70.2C93.6132 70.209 90.6202 70.7332 87.78 71.75C87.3502 71.9024 86.9295 72.0794 86.52 72.28C86.0283 68.7558 84.6826 65.4052 82.6 62.52L81.7 61.26C81.29 60.69 80.81 60.02 80.38 59.4C82.11 57.74 86.05 54.63 94.87 49.51C96.3993 48.6202 97.713 47.4032 98.7169 45.9461C99.7208 44.4891 100.39 42.8282 100.677 41.0822C100.963 39.3362 100.86 37.5484 100.375 35.8468C99.89 34.1453 99.0345 32.5721 97.87 31.24C96.7508 29.9542 95.3674 28.925 93.8142 28.2226C92.261 27.5202 90.5746 27.1611 88.87 27.17C88.4925 27.1708 88.1154 27.1908 87.74 27.23C87.9257 26.1879 88.0525 25.1363 88.12 24.08C88.3791 20.5188 87.902 16.9424 86.7183 13.5738C85.5346 10.2051 83.6698 7.11632 81.24 4.49998C79.3819 2.63948 76.9642 1.44078 74.3586 1.08812C71.7529 0.735454 69.1035 1.24836 66.8178 2.54802C64.532 3.84767 62.7364 5.86213 61.707 8.28166C60.6775 10.7012 60.4713 13.3918 61.12 15.94C62.52 21.42 60.74 24.06 49.91 32.53C44.58 36.71 39.07 41.02 35.08 47.01C32.08 51.5 28.22 60.64 34.73 72.48C29.6765 73.5021 24.7714 75.1551 20.13 77.4C11.89 81.4 10.19 88.2 11.35 93.25C12.67 98.99 16.96 101.93 21.23 103.54C21.23 103.98 21.3 104.42 21.37 104.86C21.6662 106.684 22.3223 108.432 23.3 110C20.3466 110.596 17.4544 111.463 14.66 112.59C5.99997 116.12 1.34997 121.2 0.829969 127.67C0.632155 130.364 1.22277 133.056 2.52973 135.42C3.83669 137.784 5.80346 139.715 8.18997 140.98C11.0148 142.504 14.0963 143.493 17.28 143.9C18.28 144.06 19.21 144.2 20.18 144.34C21.0457 145.531 22.1279 146.549 23.37 147.34C29.08 151.04 39.56 152.11 47.13 152.6C51.56 152.88 56.21 153.02 60.95 153.02C73.68 153.02 85.55 152.02 94.37 150.02C110.04 146.62 118.37 139.81 119.15 129.78C119.357 127.199 118.724 124.62 117.346 122.429C115.967 120.237 113.916 118.55 111.5 117.62V117.62Z" fill="white"/>
<path d="M43.19 111.93C43.19 111.93 38.3 114.78 46.67 115.74C56.81 116.9 62 116.74 73.17 114.62C75.4179 115.962 77.7765 117.11 80.22 118.05C55.16 128.79 23.51 117.43 43.22 111.93M40.16 97.93C40.16 97.93 34.67 101.99 43.05 102.86C53.88 103.98 62.44 104.07 77.25 101.22C78.7703 102.637 80.5635 103.729 82.52 104.43C52.22 113.29 18.52 105.13 40.16 97.93" fill="#5382A1"/>
<path d="M65.94 74.15C72.11 81.26 64.32 87.65 64.32 87.65C64.32 87.65 79.9899 79.56 72.7899 69.43C66.0699 59.97 60.9099 55.28 88.7899 39.09C88.7899 39.09 44.9699 50.03 65.8999 74.15" fill="#E76F00"/>
<path d="M99.08 122.3C99.08 122.3 102.7 125.3 95.08 127.59C80.62 131.97 34.88 133.29 22.18 127.76C17.61 125.76 26.18 123.02 28.87 122.44C30.3158 122.085 31.8016 121.921 33.29 121.95C28.21 118.37 0.460001 128.95 19.19 132.01C70.28 140.29 112.32 128.28 99.07 122.3M45.5 83.4C45.5 83.4 22.24 88.93 37.26 90.93C43.61 91.78 56.26 91.59 68.03 90.6C77.66 89.79 87.33 88.06 87.33 88.06C85.2991 88.9446 83.3428 89.9913 81.48 91.19C57.85 97.41 12.22 94.52 25.36 88.19C36.5 82.79 45.5 83.4 45.5 83.4ZM87.23 106.73C111.23 94.25 100.14 82.25 92.39 83.87C91.4588 84.0449 90.5426 84.2923 89.65 84.61C90.1544 83.8848 90.8703 83.3331 91.7 83.03C107.03 77.64 118.82 98.92 86.7 107.36C86.8968 107.181 87.0594 106.967 87.18 106.73" fill="#5382A1"/>
<path d="M72.79 12.94C72.79 12.94 86.09 26.25 60.18 46.71C39.4 63.12 55.44 72.47 60.18 83.17C48.05 72.22 39.18 62.59 45.12 53.62C53.89 40.46 78.1201 34.08 72.8001 12.94" fill="#E76F00"/>
<path d="M47.9 140.54C70.9 142.02 106.35 139.72 107.19 128.82C107.19 128.82 105.58 132.95 88.14 136.23C68.46 139.94 44.2 139.5 29.8 137.13C29.8 137.13 32.75 139.57 47.9 140.54" fill="#5382A1"/>
</svg>
