<svg width="153" height="153" viewBox="0 0 153 153" fill="none" xmlns="http://www.w3.org/2000/svg">
<path d="M140.99 6.16998H12.99C9.67628 6.16998 6.98999 8.85627 6.98999 12.17V140.17C6.98999 143.484 9.67628 146.17 12.99 146.17H140.99C144.304 146.17 146.99 143.484 146.99 140.17V12.17C146.99 8.85627 144.304 6.16998 140.99 6.16998Z" fill="#F7DF1E"/>
<path d="M140.99 12.17V140.17H12.99V12.17H140.99ZM140.99 0.169983H12.99C9.80739 0.169983 6.75514 1.43426 4.50471 3.68469C2.25427 5.93513 0.98999 8.98738 0.98999 12.17V140.17C0.98999 143.353 2.25427 146.405 4.50471 148.655C6.75514 150.906 9.80739 152.17 12.99 152.17H140.99C144.173 152.17 147.225 150.906 149.475 148.655C151.726 146.405 152.99 143.353 152.99 140.17V12.17C152.99 8.98738 151.726 5.93513 149.475 3.68469C147.225 1.43426 144.173 0.169983 140.99 0.169983Z" fill="white"/>
<path d="M98.9699 112.17C101.55 116.38 104.9 119.48 110.83 119.48C115.83 119.48 119 116.99 119 113.55C119 109.42 115.73 107.96 110.25 105.55L107.25 104.26C98.5699 100.56 92.7999 95.93 92.7999 86.14C92.7999 77.14 99.6799 70.25 110.42 70.25C118.07 70.25 123.56 72.91 127.53 79.88L118.16 85.88C116.1 82.19 113.87 80.73 110.42 80.73C106.97 80.73 104.66 82.96 104.66 85.88C104.66 89.49 106.9 90.95 112.06 93.19L115.06 94.48C125.28 98.86 131.06 103.33 131.06 113.37C131.06 124.2 122.56 130.13 111.13 130.13C99.9599 130.13 92.7499 124.81 89.2099 117.83L98.9699 112.17ZM56.4999 113.22C58.3899 116.57 60.1099 119.4 64.2399 119.4C68.1899 119.4 70.6799 117.86 70.6799 111.85V71H82.6799V112C82.6799 124.45 75.3799 130.12 64.6799 130.12C55.0499 130.12 49.4699 125.12 46.6799 119.12L56.4999 113.22Z" fill="black"/>
</svg>
