<svg width="153" height="153" viewBox="0 0 153 153" fill="none" xmlns="http://www.w3.org/2000/svg">
<path d="M93.73 76.49L149.06 21.16C150.737 19.4812 151.878 17.3431 152.34 15.0157C152.802 12.6884 152.563 10.2764 151.655 8.08459C150.746 5.89277 149.208 4.0195 147.235 2.70154C145.262 1.38358 142.943 0.680164 140.57 0.680054H12.57C9.38741 0.680054 6.33515 1.94427 4.08472 4.1947C1.83428 6.44514 0.570007 9.49746 0.570007 12.6801V140.68C0.570007 143.863 1.83428 146.915 4.08472 149.165C6.33515 151.416 9.38741 152.68 12.57 152.68H140.57C142.941 152.682 145.26 151.981 147.233 150.667C149.206 149.352 150.746 147.482 151.657 145.293C152.569 143.104 152.812 140.694 152.355 138.368C151.898 136.041 150.762 133.902 149.09 132.22L93.73 76.49Z" fill="white"/>
<path d="M12.57 140.68L76.79 76.46L140.57 140.68H12.57Z" fill="url(#paint0_linear_23_314)"/>
<path d="M12.57 12.6801H76.79L12.57 82.01V12.6801Z" fill="url(#paint1_linear_23_314)"/>
<path d="M76.79 12.6801L12.57 80.3V140.68L76.79 76.46L140.57 12.6801H76.79Z" fill="url(#paint2_linear_23_314)"/>
<defs>
<linearGradient id="paint0_linear_23_314" x1="46.65" y1="170.6" x2="107.12" y2="110.13" gradientUnits="userSpaceOnUse">
<stop offset="0.1" stop-color="#0095D5"/>
<stop offset="0.3" stop-color="#238AD9"/>
<stop offset="0.62" stop-color="#557BDE"/>
<stop offset="0.86" stop-color="#7472E2"/>
<stop offset="1" stop-color="#806EE3"/>
</linearGradient>
<linearGradient id="paint1_linear_23_314" x1="21.53" y1="38.38" x2="56.66" y2="3.26005" gradientUnits="userSpaceOnUse">
<stop offset="0.12" stop-color="#0095D5"/>
<stop offset="0.42" stop-color="#3C83DC"/>
<stop offset="0.7" stop-color="#6D74E1"/>
<stop offset="0.83" stop-color="#806EE3"/>
</linearGradient>
<linearGradient id="paint2_linear_23_314" x1="-8.98999" y1="130.35" x2="110.12" y2="11.2301" gradientUnits="userSpaceOnUse">
<stop offset="0.11" stop-color="#C757BC"/>
<stop offset="0.21" stop-color="#D0609A"/>
<stop offset="0.43" stop-color="#E1725C"/>
<stop offset="0.6" stop-color="#EE7E2F"/>
<stop offset="0.74" stop-color="#F58613"/>
<stop offset="0.82" stop-color="#F88909"/>
</linearGradient>
</defs>
</svg>
