<svg width="214" height="153" viewBox="0 0 214 153" fill="none" xmlns="http://www.w3.org/2000/svg">
<path d="M188 93.36C188.69 93.68 189.47 94.04 189.81 94.25C190.15 94.46 190.6 94.8 191.07 95.15L192.07 95.88C193.566 97.3812 195.376 98.5321 197.37 99.25C199.18 99.8942 201.119 100.094 203.023 99.8331C204.927 99.5721 206.74 98.8577 208.31 97.75C209.879 96.6423 211.16 95.1741 212.044 93.4688C212.928 91.7635 213.389 89.8708 213.39 87.95V87.79C213.392 85.7605 212.875 83.7643 211.89 81.99C211.493 81.034 210.997 80.1223 210.41 79.27C210.067 78.777 209.69 78.3091 209.28 77.87C210.252 76.0987 210.761 74.1106 210.76 72.09V71.62C210.761 68.5131 209.556 65.527 207.4 63.29L207.13 62.93C206.247 61.7138 205.242 60.5913 204.13 59.58L203.98 59.44C200.813 56.6761 197.436 54.1619 193.88 51.92C192.303 50.9458 190.648 50.1062 188.93 49.41L188.67 49.3C188.633 49.2104 188.589 49.1235 188.54 49.04C188.508 48.9614 188.471 48.8847 188.43 48.81C187.21 46.49 185.9 43.7 184.53 40.53C184.53 40.42 184.44 40.32 184.4 40.22C184.19 39.77 183.97 39.22 183.72 38.59C183.004 36.6616 182.117 34.8009 181.07 33.03C174.82 22.72 167.73 15.84 156.59 9.29999L156.45 9.21997C153.539 7.67895 150.415 6.58028 147.18 5.96002L146.54 5.81C145.848 5.64093 145.142 5.54046 144.43 5.51001H144.15L143.93 5.36999L143.84 5.31C140.14 2.98 134.5 0.19 128.69 0.19C125.42 0.13611 122.211 1.07559 119.486 2.88428C116.762 4.69296 114.65 7.28572 113.43 10.32C109.57 19.68 115.67 27.32 117.67 29.86C117.8 30.02 117.93 30.17 118.03 30.31C118.13 30.45 118.14 30.47 118.2 30.54L118.88 31.45C119.05 31.66 119.25 31.93 119.43 32.17C119.615 32.8959 119.842 33.6105 120.11 34.31C120.28 34.78 120.45 35.31 120.62 35.75C121.382 38.1034 122.311 40.3992 123.4 42.62C123.404 42.6532 123.404 42.6867 123.4 42.72C123.65 43.18 123.9 43.66 124.17 44.14C121.89 52.91 123.17 63.14 127.38 70.04C127.413 70.1021 127.45 70.1623 127.49 70.22C128.537 71.8848 129.79 73.4104 131.22 74.76C129.192 75.5583 127.268 76.5992 125.49 77.86C120.299 74.5027 114.242 72.7337 108.06 72.77C101.664 72.6286 95.4405 74.8503 90.58 79.01C88.6997 80.6476 87.1017 82.5835 85.85 84.74H82.85C80.342 84.7303 77.894 85.5067 75.85 86.96C73.806 85.5067 71.358 84.7303 68.85 84.74H66.76L66.6701 83.93C66.3227 81.0149 64.9187 78.3283 62.7239 76.3786C60.5291 74.4289 57.6957 73.3514 54.76 73.35H46.13C43.968 73.3508 41.8463 73.9357 39.9893 75.0429C38.1322 76.1501 36.6088 77.7384 35.58 79.64C34.5504 77.7369 33.0255 76.1476 31.1665 75.0403C29.3076 73.9331 27.1838 73.349 25.02 73.35H16.02C13.098 73.3487 10.2759 74.4136 8.08315 76.3449C5.8904 78.2762 4.47769 80.9412 4.11001 83.84C2.35001 97.7 1.24007 112.72 0.800072 128.47C0.755961 130.073 1.03369 131.669 1.61697 133.164C2.20024 134.658 3.07722 136.02 4.19595 137.169C5.31467 138.319 6.65243 139.232 8.13027 139.856C9.60811 140.48 11.1961 140.801 12.8001 140.8H19.5C21.7293 140.805 23.9153 140.185 25.8101 139.01C27.7015 140.184 29.884 140.804 32.11 140.8H37.65C40.0093 140.804 42.3167 140.108 44.2801 138.8C45.7806 139.802 47.4913 140.445 49.2801 140.68C49.5549 142.776 50.3785 144.762 51.6674 146.437C52.9563 148.112 54.6648 149.417 56.62 150.22C59.4595 151.471 62.5178 152.151 65.62 152.22C71.62 152.22 80.37 149.84 88 138.51V138.45C88.44 137.79 88.8701 137.09 89.3001 136.37C94.5089 139.611 100.515 141.342 106.65 141.37C113.42 141.37 119.21 139.58 123.9 136.07C127.77 138.98 133.44 141.44 141.54 141.44C142.699 141.444 143.857 141.388 145.01 141.27L151.59 145.1C154.335 146.698 157.601 147.143 160.674 146.337C163.746 145.531 166.373 143.54 167.98 140.8H186.53C187.373 140.8 188.215 140.713 189.04 140.54C189.846 140.708 190.667 140.795 191.49 140.8H192.64C193.091 140.796 193.542 140.766 193.99 140.71C194.445 140.765 194.902 140.795 195.36 140.8H196.36H197.15C197.4 140.8 197.67 140.8 197.93 140.8H198.71C198.96 140.8 199.22 140.8 199.46 140.8C199.7 140.8 199.97 140.8 200.22 140.8H201.31C204.493 140.8 207.545 139.536 209.795 137.285C212.046 135.035 213.31 131.983 213.31 128.8V123.47C213.31 120.287 212.046 117.235 209.795 114.985C207.545 112.734 204.493 111.47 201.31 111.47H199.68C198.756 111.577 197.824 111.577 196.9 111.47H195.33C195.13 111.47 194.93 111.47 194.74 111.47C194.55 111.47 194.33 111.47 194.12 111.47H189.89C189.341 111.473 188.793 111.516 188.25 111.6C187.671 111.505 187.086 111.454 186.5 111.45H184.79V91.8C186 92.44 187.09 92.94 188 93.36Z" fill="white"/>
<path d="M58.21 128.78H50.9399C50.6799 116.513 49.9733 104.97 48.8199 94.15H48.75L37.6801 128.78H32.14L21.14 94.15H21.0699C20.2633 104.53 19.75 116.073 19.53 128.78H12.9C13.3267 113.333 14.4 98.85 16.12 85.33H25.12L35.61 117.26H35.6801L46.23 85.33H54.86C56.74 101.17 57.8533 115.653 58.2 128.78M89.74 96.72C86.78 112.787 82.8767 124.453 78.03 131.72C74.25 137.327 70.1066 140.13 65.6 140.13C64.0652 140.053 62.5589 139.686 61.16 139.05V135.18C62.1546 135.311 63.1569 135.375 64.16 135.37C66.0129 135.456 67.8292 134.834 69.24 133.63C69.948 133.052 70.5221 132.326 70.9226 131.505C71.3231 130.683 71.5406 129.784 71.5601 128.87C71.5601 127.66 70.96 125.2 69.76 121.47L61.76 96.68H68.9L74.63 115.22C75.92 119.43 76.45 122.37 76.24 124.04C79.4837 115.206 81.6853 106.024 82.8 96.68L89.74 96.72Z" fill="#5D87A1"/>
<path d="M186.56 128.78H165.9V85.33H172.85V123.43H186.56V128.78ZM160.5 129.83L152.5 125.89C153.227 125.308 153.897 124.659 154.5 123.95C157.893 119.95 159.59 114.05 159.59 106.25C159.59 91.8767 153.947 84.6867 142.66 84.68C137.133 84.68 132.82 86.5066 129.72 90.16C126.327 94.16 124.633 100.04 124.64 107.8C124.64 115.43 126.14 121.04 129.14 124.59C131.893 127.81 136.037 129.42 141.57 129.42C143.493 129.44 145.41 129.185 147.26 128.66L157.66 134.71L160.5 129.83ZM134.63 120.09C132.87 117.257 131.99 112.71 131.99 106.45C131.99 95.51 135.323 90.0367 141.99 90.03C145.47 90.03 148.023 91.3367 149.65 93.95C151.41 96.79 152.29 101.297 152.29 107.47C152.29 118.497 148.957 124.013 142.29 124.02C138.81 124.02 136.257 122.71 134.63 120.09ZM121.63 116.74C121.681 118.454 121.349 120.158 120.656 121.728C119.964 123.297 118.93 124.692 117.63 125.81C114.917 128.17 111.29 129.35 106.75 129.35C102.314 129.29 98.0013 127.877 94.39 125.3L96.26 121.56C99.1286 123.13 102.322 124.013 105.59 124.14C107.775 124.265 109.94 123.656 111.74 122.41C112.487 121.848 113.09 121.118 113.5 120.278C113.91 119.439 114.116 118.514 114.1 117.58C114.1 115 112.3 112.79 109 110.95C106 109.27 99.87 105.78 99.87 105.78C96.57 103.37 94.87 100.78 94.87 96.53C94.8017 94.9276 95.0922 93.3302 95.7202 91.8544C96.3482 90.3787 97.298 89.0618 98.5 88C101.166 85.7539 104.577 84.5904 108.06 84.74C111.964 84.706 115.791 85.8262 119.06 87.96L117.39 91.69C114.754 90.5305 111.91 89.9181 109.03 89.89C107.173 89.7692 105.337 90.343 103.88 91.5C103.266 92.0011 102.769 92.6304 102.423 93.3438C102.078 94.0572 101.892 94.8375 101.88 95.63C101.88 98.2 103.72 100.43 107.11 102.31C110.2 103.99 116.44 107.55 116.44 107.55C119.83 109.95 121.52 112.55 121.52 116.73" fill="#F8981D"/>
<path d="M195.28 70.7801C191.08 70.6701 187.83 71.09 185.1 72.25C184.31 72.56 183.1 72.56 182.94 73.56C183.37 73.98 183.42 74.66 183.79 75.24C184.507 76.4573 185.431 77.5402 186.52 78.44C187.62 79.29 188.72 80.12 189.88 80.86C191.88 82.12 194.24 82.86 196.23 84.11C197.39 84.85 198.54 85.79 199.7 86.58C200.27 87 200.64 87.68 201.38 87.95V87.79C201.01 87.31 200.9 86.63 200.54 86.1L198.96 84.58C197.419 82.5469 195.578 80.7598 193.5 79.2801C191.82 78.1301 188.14 76.55 187.5 74.62L187.4 74.51C188.629 74.3323 189.84 74.0479 191.02 73.66C192.8 73.19 194.43 73.3 196.27 72.83C197.11 72.61 197.95 72.3501 198.79 72.0901V71.62C197.79 70.62 197.16 69.41 196.16 68.52C193.446 66.144 190.551 63.9841 187.5 62.06C185.87 61.06 183.78 60.33 182.04 59.44C181.41 59.12 180.36 58.97 180.04 58.44C179.183 57.187 178.462 55.8461 177.89 54.44C176.37 51.55 174.89 48.35 173.59 45.3C172.811 43.2508 171.916 41.2476 170.91 39.3C165.5 30.37 159.62 24.97 150.59 19.66C148.464 18.6351 146.206 17.9115 143.88 17.51L139.94 17.3C139.09 16.7457 138.281 16.1308 137.52 15.4601C134.52 13.5701 126.81 9.46003 124.61 14.88C123.19 18.3 126.71 21.66 127.92 23.39C128.934 24.6148 129.828 25.9342 130.59 27.33C130.96 28.22 131.06 29.17 131.43 30.11C132.202 32.4947 133.114 34.832 134.16 37.11C134.729 38.2381 135.377 39.3242 136.1 40.36C136.52 40.94 137.26 41.2001 137.42 42.1501C136.69 43.1501 136.63 44.77 136.21 46.08C134.32 52.01 135.06 59.36 137.73 63.72C138.57 65.03 140.57 67.92 143.24 66.82C145.61 65.82 145.09 62.88 145.77 60.26C145.92 59.62 145.77 59.26 146.13 58.79V58.89C146.87 60.36 147.6 61.78 148.28 63.25C150.158 65.9412 152.466 68.306 155.11 70.25C156.37 71.25 157.36 72.8201 158.94 73.4001V73.25H158.84C158.484 72.8632 158.077 72.5268 157.63 72.25C156.637 71.2752 155.724 70.2217 154.9 69.1C152.679 66.0813 150.712 62.8837 149.02 59.54C148.18 57.91 147.45 56.13 146.77 54.54C146.45 53.91 146.45 52.9701 145.92 52.6501C145.13 53.8101 143.98 54.8 143.41 56.22C142.41 58.48 142.3 61.2201 141.93 64.1501L141.73 64.25C140.05 63.83 139.47 62.1 138.84 60.64C137.209 56.1404 137.041 51.2408 138.36 46.64C138.73 45.54 140.36 42.07 139.68 41.02C139.36 40.02 138.31 39.4401 137.74 38.6501C137.006 37.5897 136.37 36.4651 135.84 35.29C134.58 32.36 133.95 29.1 132.59 26.16C131.833 24.754 130.956 23.4158 129.97 22.16C128.877 20.8891 127.91 19.5161 127.08 18.06C126.82 17.49 126.45 16.54 126.87 15.91C126.902 15.7328 126.99 15.5707 127.121 15.4481C127.253 15.3254 127.421 15.2489 127.6 15.23C128.28 14.65 130.23 15.39 130.91 15.7C132.733 16.3828 134.476 17.2613 136.11 18.32C136.84 18.85 137.63 19.85 138.57 20.11H139.68C141.36 20.48 143.25 20.21 144.82 20.69C147.482 21.5749 150.022 22.7911 152.38 24.31C159.338 28.7528 164.991 34.9647 168.76 42.31C169.39 43.51 169.65 44.62 170.23 45.87C171.33 48.45 172.7 51.0701 173.8 53.5901C174.768 56.0602 176.019 58.4093 177.53 60.5901C178.31 61.6901 181.47 62.2701 182.89 62.8401C184.121 63.2668 185.33 63.7575 186.51 64.31C188.29 65.41 190.07 66.67 191.75 67.88C192.59 68.51 195.22 69.88 195.37 70.88M141.82 25.26C141.095 25.2515 140.372 25.3389 139.67 25.52V25.63H139.77C140.277 26.389 140.842 27.1078 141.46 27.7801C141.88 28.6201 142.25 29.45 142.66 30.3L142.76 30.19C143.152 29.883 143.459 29.4815 143.653 29.0233C143.847 28.565 143.922 28.065 143.87 27.57C143.637 27.2133 143.427 26.8426 143.24 26.4601C142.93 25.9401 142.24 25.68 141.82 25.26" fill="#5D87A1"/>
<path d="M200.28 128.78H201.37V123.45H199.74L198.41 127.08L196.96 123.45H195.39V128.78H196.39V124.78L197.91 128.78H198.69L200.2 124.78V128.78H200.28ZM191.52 128.78H192.67V124.35H194.18V123.45H189.95V124.35H191.5V128.78H191.52Z" fill="#F8981D"/>
</svg>
