<svg width="164" height="153" viewBox="0 0 164 153" fill="none" xmlns="http://www.w3.org/2000/svg">
<path d="M163.19 46.12C163.04 42.1039 161.741 38.2151 159.447 34.9153C157.153 31.6155 153.96 29.0432 150.248 27.5039C146.535 25.9646 142.459 25.5229 138.503 26.2312C134.547 26.9395 130.878 28.7682 127.93 31.5C127.62 31.3 127.31 31.1 126.99 30.91L80.1 3.81H80.04C76.7231 1.95405 72.9858 0.979553 69.185 0.979553C65.3842 0.979553 61.6468 1.95405 58.33 3.81H58.24L11.29 30.89C7.9593 32.8165 5.1958 35.5876 3.27849 38.9236C1.36118 42.2596 0.357906 46.0423 0.369981 49.89V104C0.371469 107.835 1.37885 111.602 3.29152 114.925C5.20419 118.249 7.95523 121.012 11.27 122.94L23.6 130C23.82 130.13 24.06 130.25 24.29 130.37C29.71 133.03 33.29 134.01 36.37 134.37C37.7154 137.095 39.8846 139.327 42.57 140.75L58.13 149.97L58.25 150.04C61.5692 151.948 65.3313 152.952 69.16 152.95C69.5397 152.97 69.9202 152.97 70.3 152.95C73.7503 152.773 77.1093 151.78 80.1 150.05L126.99 122.97C130.307 121.036 133.061 118.267 134.977 114.939C136.892 111.611 137.904 107.84 137.91 104V67.54C139.314 67.8343 140.745 67.9818 142.18 67.98C147.744 67.9615 153.075 65.7431 157.009 61.8088C160.943 57.8746 163.162 52.5438 163.18 46.98C163.22 46.66 163.21 46.39 163.19 46.12Z" fill="white"/>
<path d="M69.16 140.94C67.4341 140.938 65.7383 140.487 64.24 139.63L48.58 130.36C46.24 129.05 47.38 128.59 48.16 128.36C50.6436 127.578 53.0214 126.493 55.24 125.13C55.4242 125.042 55.6284 125.003 55.8321 125.019C56.0358 125.035 56.2317 125.104 56.4 125.22L68.4 132.35C68.6234 132.468 68.8723 132.53 69.125 132.53C69.3778 132.53 69.6267 132.468 69.85 132.35L116.76 105.28C116.984 105.15 117.17 104.963 117.3 104.738C117.43 104.514 117.499 104.259 117.5 104V49.85C117.501 49.5913 117.435 49.3368 117.309 49.111C117.182 48.8851 117 48.6953 116.78 48.56L69.8901 21.56C69.6715 21.4326 69.423 21.3655 69.1701 21.3655C68.9171 21.3655 68.6686 21.4326 68.4501 21.56L21.57 48.56C21.346 48.6905 21.1599 48.8773 21.0301 49.1017C20.9003 49.3262 20.8313 49.5807 20.83 49.84V104C20.8298 104.256 20.8972 104.507 21.0254 104.728C21.1536 104.95 21.3381 105.133 21.56 105.26L34.4 112.68C41.4 116.16 45.6401 112.05 45.6401 107.92V54.46C45.6387 54.2815 45.673 54.1045 45.741 53.9395C45.809 53.7744 45.9093 53.6246 46.036 53.4988C46.1627 53.3731 46.3132 53.2739 46.4788 53.2072C46.6443 53.1404 46.8216 53.1073 47 53.11H52.94C53.1177 53.1087 53.2938 53.1426 53.4582 53.21C53.6226 53.2774 53.772 53.3768 53.8976 53.5024C54.0232 53.6281 54.1226 53.7774 54.19 53.9418C54.2574 54.1062 54.2914 54.2824 54.2901 54.46V107.9C54.2901 117.2 49.22 122.55 40.4 122.55C37.69 122.55 35.55 122.55 29.59 119.61L17.28 112.52C15.7852 111.646 14.5453 110.396 13.6838 108.895C12.8223 107.393 12.3694 105.691 12.37 103.96V49.84C12.3651 48.1091 12.8163 46.4074 13.6783 44.9064C14.5402 43.4054 15.7826 42.1581 17.28 41.29L64.28 14.2C65.7916 13.3729 67.487 12.9393 69.21 12.9393C70.9331 12.9393 72.6285 13.3729 74.1401 14.2L121.03 41.3C122.526 42.1707 123.767 43.4184 124.631 44.9186C125.494 46.4188 125.949 48.1191 125.95 49.85V104C125.946 105.73 125.49 107.429 124.627 108.929C123.764 110.429 122.524 111.677 121.03 112.55L74.1 139.6C72.5799 140.476 70.8543 140.931 69.1 140.92" fill="#689F63"/>
<path d="M83.65 103.65C63.12 103.65 58.82 94.23 58.82 86.33C58.82 86.1519 58.8552 85.9755 58.9237 85.811C58.9922 85.6466 59.0925 85.4973 59.2189 85.3718C59.3454 85.2463 59.4954 85.1471 59.6603 85.0799C59.8253 85.0126 60.0019 84.9787 60.18 84.98H66.24C66.5627 84.9784 66.8754 85.0926 67.1212 85.3018C67.367 85.5109 67.5298 85.8012 67.58 86.12C68.49 92.3 71.22 95.41 83.63 95.41C93.51 95.41 97.71 93.18 97.71 87.94C97.71 84.94 96.52 82.68 81.16 81.17C68.32 79.91 60.38 77.08 60.38 66.8C60.38 57.34 68.38 51.7 81.74 51.7C96.74 51.7 104.2 56.92 105.13 68.12C105.143 68.3025 105.117 68.4857 105.055 68.6578C104.993 68.83 104.896 68.9874 104.77 69.12C104.641 69.2566 104.486 69.366 104.315 69.4416C104.143 69.5172 103.958 69.5574 103.77 69.56H97.68C97.3725 69.5585 97.0747 69.4529 96.835 69.2604C96.5952 69.0679 96.4278 68.7999 96.36 68.5C94.9 62.01 91.36 59.93 81.71 59.93C70.92 59.93 69.71 63.69 69.71 66.5C69.71 69.92 71.19 70.92 85.71 72.84C100.23 74.76 106.98 77.46 106.98 87.59C106.98 97.72 98.45 103.66 83.59 103.66M140.72 46.26H142.29C142.489 46.2851 142.691 46.2663 142.881 46.205C143.072 46.1436 143.247 46.0411 143.394 45.9047C143.541 45.7684 143.656 45.6015 143.731 45.4158C143.807 45.2301 143.84 45.0301 143.83 44.83C143.83 43.45 142.88 43.45 142.35 43.45H140.73L140.72 46.26ZM138.81 41.83H142.29C143.49 41.83 145.84 41.83 145.84 44.5C145.889 45.0798 145.719 45.6569 145.363 46.1177C145.008 46.5785 144.493 46.8896 143.92 46.99C145.32 47.09 145.42 47.99 145.6 49.29C145.656 50.203 145.834 51.1044 146.13 51.97H143.98C143.92 51.5 143.6 48.97 143.6 48.78C143.45 48.2 143.25 47.92 142.54 47.92H140.77V52H138.77L138.81 41.83ZM134.61 46.83C134.606 48.3313 135.048 49.7999 135.88 51.0497C136.712 52.2995 137.896 53.2742 139.282 53.8501C140.669 54.426 142.195 54.5772 143.668 54.2845C145.14 53.9919 146.492 53.2685 147.553 52.2062C148.614 51.144 149.336 49.7906 149.627 48.3177C149.917 46.8448 149.764 45.3187 149.186 43.933C148.609 42.5473 147.632 41.3644 146.381 40.5342C145.131 39.7041 143.661 39.2641 142.16 39.27C140.159 39.2805 138.243 40.0807 136.829 41.4965C135.416 42.9123 134.618 44.8291 134.61 46.83M151.24 46.83C151.24 48.61 150.712 50.3501 149.723 51.8301C148.734 53.3102 147.329 54.4637 145.684 55.1449C144.04 55.8261 142.23 56.0043 140.484 55.657C138.738 55.3098 137.135 54.4526 135.876 53.194C134.617 51.9353 133.76 50.3316 133.413 48.5858C133.066 46.84 133.244 45.0304 133.925 43.3859C134.606 41.7413 135.76 40.3357 137.24 39.3468C138.72 38.3579 140.46 37.83 142.24 37.83C144.621 37.8483 146.9 38.8024 148.584 40.4863C150.268 42.1701 151.222 44.4487 151.24 46.83Z" fill="#689F63"/>
</svg>
