<svg width="192" height="105" viewBox="0 0 192 105" fill="none" xmlns="http://www.w3.org/2000/svg">
<path d="M184.32 27.73C178.09 20.73 168.95 17.22 157.14 17.22H130.93C127.589 17.2313 124.375 18.5026 121.93 20.78C117.594 18.7516 112.902 17.5931 108.12 17.37L108.25 16.67C108.615 14.7556 108.553 12.7843 108.068 10.8966C107.584 9.00892 106.689 7.25136 105.448 5.74915C104.206 4.24693 102.649 3.03707 100.886 2.20581C99.1233 1.37455 97.1989 0.942332 95.2501 0.940002H82.4001C79.3167 0.946496 76.3319 2.02735 73.9593 3.99664C71.5866 5.96593 69.9744 8.70052 69.4001 11.73L67.7 20.73C62.2968 18.2666 56.4067 17.0565 50.47 17.19H25.2C22.1214 17.1971 19.141 18.2744 16.7693 20.2374C14.3977 22.2004 12.7823 24.9269 12.2 27.95L0.500059 89.19C0.131967 91.1058 0.191512 93.0793 0.674375 94.9695C1.15724 96.8597 2.05153 98.6199 3.29339 100.125C4.53526 101.629 6.09396 102.841 7.85834 103.673C9.62271 104.506 11.5492 104.938 13.5001 104.94H26.6301C29.7097 104.937 32.6921 103.861 35.0645 101.897C37.437 99.9336 39.0513 97.2048 39.6301 94.18L40.69 88.67H40.99C46.5416 88.785 52.0765 88.0223 57.3901 86.41C58.7797 85.949 60.139 85.4013 61.46 84.77C62.6853 86.0089 64.1447 86.9917 65.7534 87.6612C67.362 88.3307 69.0876 88.6736 70.83 88.67H83.6801C85.4409 88.6671 87.1833 88.3117 88.8046 87.6248C90.4259 86.9378 91.8932 85.9331 93.1201 84.67C94.3445 85.9363 95.8113 86.943 97.4332 87.6302C99.055 88.3175 100.799 88.6711 102.56 88.67H105.85L105.76 89.11C105.379 91.0316 105.428 93.0139 105.905 94.9141C106.381 96.8143 107.273 98.5851 108.517 100.099C109.76 101.613 111.324 102.832 113.095 103.67C114.866 104.507 116.801 104.941 118.76 104.94H132.39C135.453 104.928 138.419 103.86 140.787 101.916C143.155 99.9726 144.781 97.2722 145.39 94.27L146.5 88.67H147.26C152.927 88.7893 158.579 88.0406 164.02 86.45C169.226 84.7929 174.005 82.0143 178.02 78.31C184.58 72.5058 189.032 64.6922 190.68 56.09C193.5 41.74 188.8 32.75 184.32 27.73Z" fill="white"/>
<path d="M39.56 64.49C44.56 64.49 48.27 63.56 50.63 61.72C52.99 59.88 54.57 56.72 55.41 52.33C56.2 48.21 55.9 45.33 54.52 43.78C53.14 42.23 50.07 41.4 45.52 41.4H37.52L33.0999 64.49H39.56ZM13.5 92.94C13.3095 92.9498 13.1194 92.9142 12.9455 92.8359C12.7716 92.7577 12.6189 92.6391 12.5 92.49C12.3895 92.3505 12.3094 92.1896 12.2646 92.0174C12.2198 91.8452 12.2114 91.6656 12.2399 91.49L23.9499 30.29C24.0038 30.0067 24.1555 29.7514 24.3785 29.5687C24.6015 29.3859 24.8817 29.2872 25.17 29.29H50.41C58.34 29.29 64.2499 31.47 67.9599 35.79C71.6699 40.11 72.84 46.19 71.38 53.79C70.8349 56.7861 69.8225 59.678 68.38 62.36C66.9041 65.0105 65.0174 67.4103 62.79 69.47C60.1808 71.994 57.0411 73.9038 53.5999 75.06C49.5019 76.2662 45.2403 76.823 40.9699 76.71H30.75L27.8299 91.96C27.776 92.2433 27.6243 92.4986 27.4013 92.6813C27.1783 92.8641 26.8983 92.9628 26.6099 92.96L13.5 92.94Z" fill="#6082BB"/>
<path d="M102.5 76.67C102.309 76.6762 102.119 76.6379 101.946 76.5581C101.772 76.4782 101.62 76.3591 101.5 76.21C101.392 76.0695 101.314 75.9081 101.271 75.7361C101.228 75.564 101.221 75.3849 101.25 75.21L106.36 48.13C106.85 45.55 106.73 43.7 106.02 42.92C105.59 42.45 104.3 41.65 100.47 41.65H91.2L84.77 75.65C84.7168 75.9299 84.568 76.1825 84.3491 76.3649C84.1303 76.5473 83.8548 76.6481 83.57 76.65H70.72C70.5288 76.6579 70.3385 76.6202 70.1647 76.5403C69.9908 76.4603 69.8384 76.3403 69.72 76.19C69.6101 76.0502 69.5302 75.8892 69.4855 75.7171C69.4407 75.5451 69.4321 75.3656 69.46 75.19L81.1701 14C81.2233 13.7201 81.3721 13.4674 81.591 13.285C81.8098 13.1026 82.0851 13.0019 82.37 13H95.22C95.4112 12.9921 95.6016 13.0297 95.7754 13.1097C95.9492 13.1896 96.1015 13.3097 96.22 13.46C96.3299 13.5998 96.4097 13.7608 96.4545 13.9328C96.4992 14.1049 96.5079 14.2844 96.48 14.46L93.69 29.24H103.69C111.29 29.24 116.44 30.61 119.43 33.45C122.42 36.29 123.43 40.96 122.27 47.19L116.89 75.67C116.837 75.9498 116.688 76.2026 116.469 76.3849C116.25 76.5673 115.975 76.668 115.69 76.67H102.5Z" fill="#6082BB"/>
<path d="M145.85 64.49C151.02 64.49 154.85 63.56 157.34 61.72C159.83 59.88 161.43 56.72 162.34 52.33C163.15 48.21 162.84 45.33 161.41 43.78C159.98 42.23 156.79 41.4 152.01 41.4H143.74L139.15 64.49H145.85ZM118.77 92.94C118.58 92.9437 118.392 92.9053 118.219 92.8275C118.046 92.7497 117.893 92.6344 117.77 92.49C117.656 92.3523 117.573 92.1918 117.526 92.0193C117.48 91.8468 117.471 91.6663 117.5 91.49L129.66 30.29C129.724 30.0043 129.884 29.7493 130.113 29.5673C130.343 29.3853 130.627 29.2875 130.92 29.29H157.13C165.37 29.29 171.5 31.47 175.36 35.79C179.22 40.11 180.43 46.19 178.91 53.79C178.333 56.7989 177.269 59.6935 175.76 62.36C174.217 65.0233 172.259 67.4235 169.96 69.47C167.226 72.0073 163.97 73.9153 160.42 75.06C156.155 76.2678 151.731 76.8241 147.3 76.71H136.7L133.7 91.96C133.636 92.2473 133.474 92.5037 133.243 92.6858C133.011 92.868 132.724 92.9648 132.43 92.96L118.77 92.94Z" fill="#6082BB"/>
</svg>
