<svg width="168" height="133" viewBox="0 0 168 133" fill="none" xmlns="http://www.w3.org/2000/svg">
<path d="M163.32 8C158.08 1.48 150.09 0.690044 144.53 0.670044C138.75 0.670044 132.59 0.670044 125.15 0.670044H68.21C61.45 0.670044 54.6934 0.670044 47.94 0.670044C31.87 0.670044 23.47 7.43001 19.85 23.14C13.9801 48.64 7.91005 75.2 1.29005 104.33C0.0200533 109.94 -1.05995 118.19 4.29005 124.93C9.64005 131.67 18.1 132.53 23.96 132.55C39.32 132.6 55.3201 132.63 71.5101 132.63C87.2601 132.63 103.75 132.63 120.51 132.55C135.22 132.55 144.68 125.01 147.88 110.88C154.7 80.79 160.75 53.65 166.37 27.88C167.58 22.53 168.55 14.57 163.32 8Z" fill="white"/>
<path fill-rule="evenodd" clip-rule="evenodd" d="M96.23 12.7C112.31 12.7 128.39 12.64 144.48 12.7C154.04 12.7 156.73 15.9401 154.67 25.3801C148.67 53.0267 142.517 80.6534 136.21 108.26C134.21 116.99 129.69 120.56 120.51 120.59C88.3434 120.69 56.1767 120.69 24.01 120.59C13.49 120.59 10.73 116.99 13.01 107.02C19.1567 79.9601 25.3434 52.9101 31.57 25.8701C33.94 15.5601 37.51 12.74 48 12.71C64.06 12.67 80.14 12.7 96.23 12.7Z" fill="#E0EAF5"/>
<path fill-rule="evenodd" clip-rule="evenodd" d="M71.92 117.38C55.84 117.38 39.75 117.45 23.67 117.38C15.51 117.32 14.03 115.38 15.86 107.38C22.09 80.33 28.51 53.32 34.6 26.23C36.23 18.96 39.75 15.7499 47.53 15.8299C79.7 16.1199 111.88 15.9199 144.04 15.9499C152.11 15.9499 153.47 17.69 151.66 25.87C145.78 52.43 139.84 78.98 133.84 105.52C131.58 115.45 128.99 117.35 118.54 117.37C103 117.41 87.46 117.413 71.92 117.38Z" fill="#2671BE"/>
<path fill-rule="evenodd" clip-rule="evenodd" d="M85.61 64.36C84.53 63.1 83.35 61.64 82.09 60.25C74.98 52.35 67.93 44.39 60.7 36.61C57.39 33.05 56.33 29.61 60.31 26.08C64.29 22.55 68.1 22.9201 71.7 26.9101C81.7 38.0401 91.77 49.1801 101.98 60.1501C105.79 64.2501 104.9 67.04 100.71 70.07C84.6033 81.73 68.56 93.4833 52.58 105.33C48.98 107.98 45.58 108.65 42.64 104.73C39.44 100.4 42.4 97.8301 45.73 95.4101C57.6167 86.7434 69.4767 78.0368 81.31 69.2901C82.95 68.0701 85.31 67.36 85.61 64.36Z" fill="#FDFDFE"/>
<path fill-rule="evenodd" clip-rule="evenodd" d="M90.7 106.21C86.37 106.21 82.03 106.35 77.7 106.21C74.26 106.05 72.18 104.13 72.23 100.5C72.23 97.06 74 94.5 77.44 94.39C86.91 94.13 96.39 94.19 105.85 94.39C106.539 94.3593 107.226 94.4713 107.869 94.719C108.512 94.9667 109.098 95.3446 109.588 95.8291C110.078 96.3137 110.463 96.8944 110.718 97.5347C110.973 98.175 111.093 98.8612 111.07 99.5501C111.07 103.15 109.15 105.93 105.3 106.16C100.45 106.46 95.56 106.24 90.69 106.24L90.7 106.21Z" fill="#FCFDFD"/>
</svg>
