<svg width="153" height="153" viewBox="0 0 153 153" fill="none" xmlns="http://www.w3.org/2000/svg">
<path d="M143.11 42.67C140.625 39.6031 137.499 37.1184 133.95 35.3906C130.401 33.6629 126.517 32.7342 122.57 32.67H120.03V29.22C120.08 25.7382 119.403 22.2843 118.041 19.0796C116.678 15.8749 114.662 12.99 112.12 10.61C104.71 3.60999 93.12 0.159973 76.57 0.159973C60.68 0.159973 49.46 3.09997 42.26 9.15997C39.6982 11.2324 37.6303 13.8497 36.2067 16.8215C34.7831 19.7932 34.0395 23.0449 34.03 26.34V33.34H33.66C29.369 33.2756 25.1136 34.126 21.1771 35.8348C17.2405 37.5435 13.7132 40.0714 10.83 43.25C4.17002 50.67 0.830017 61.65 0.830017 75.89C0.830017 88.94 3.42999 99.42 8.54999 107.04C13.93 115.04 22.13 119.63 31.05 119.63H33.59V123.09C33.5745 126.985 34.4547 130.832 36.1627 134.333C37.8706 137.833 40.3605 140.895 43.44 143.28C50.93 149.28 61.92 152.14 77.05 152.14C92.92 152.14 104.16 149.14 111.4 143.07C113.942 141.007 115.995 138.406 117.412 135.455C118.828 132.503 119.572 129.274 119.59 126V119H119.92C124.226 119.062 128.496 118.202 132.443 116.477C136.389 114.752 139.921 112.203 142.8 109C149.43 101.57 152.8 90.62 152.8 76.44C152.79 61.69 149.5 50.33 143.11 42.67Z" fill="white"/>
<path d="M76.57 12.17C46.35 12.17 46.03 23.9 46.03 26.32V41H77.16V45.4H33.66C24.41 45.4 12.79 51.03 12.79 75.95C12.79 98.84 21.86 107.69 31.01 107.69H41.88V92.39C41.88 86 45.05 74.17 59.81 74.17H90.68C95.22 74.17 108.03 72.17 108.03 57.41V29.23C108.03 25.56 107.4 12.17 76.57 12.17ZM59.41 22C60.5175 22 61.6003 22.3285 62.5212 22.9438C63.4421 23.5591 64.1599 24.4337 64.5837 25.457C65.0076 26.4802 65.1185 27.6062 64.9024 28.6925C64.6863 29.7788 64.153 30.7766 63.3698 31.5598C62.5866 32.343 61.5888 32.8763 60.5025 33.0924C59.4162 33.3085 58.2902 33.1976 57.267 32.7737C56.2437 32.3499 55.3691 31.6321 54.7538 30.7112C54.1384 29.7903 53.81 28.7076 53.81 27.6C53.8087 26.8642 53.9526 26.1355 54.2336 25.4554C54.5145 24.7754 54.927 24.1575 55.4473 23.6373C55.9675 23.117 56.5854 22.7045 57.2654 22.4236C57.9455 22.1426 58.6742 21.9987 59.41 22Z" fill="url(#paint0_linear_23_303)"/>
<path d="M77.01 140.17C107.22 140.17 107.59 128.22 107.59 126.03V111.37H76.43V107H119.92C129.24 107 140.79 101.24 140.79 76.46C140.79 49.32 128.53 44.71 122.57 44.71H111.7V60C111.7 66.39 108.64 78.21 93.77 78.21H62.9C58.37 78.21 45.55 80.42 45.55 94.98V123.16C45.55 129.21 49.27 140.17 77.01 140.17ZM94.17 130.32C93.0624 130.32 91.9797 129.992 91.0588 129.376C90.1379 128.761 89.4201 127.886 88.9963 126.863C88.5724 125.84 88.4615 124.714 88.6776 123.628C88.8937 122.541 89.427 121.543 90.2102 120.76C90.9934 119.977 91.9912 119.444 93.0775 119.228C94.1638 119.012 95.2898 119.122 96.313 119.546C97.3363 119.97 98.2109 120.688 98.8262 121.609C99.4416 122.53 99.77 123.612 99.77 124.72C99.77 125.455 99.6252 126.184 99.3438 126.863C99.0623 127.542 98.6498 128.16 98.1298 128.68C97.6098 129.2 96.9925 129.612 96.313 129.894C95.6336 130.175 94.9054 130.32 94.17 130.32Z" fill="url(#paint1_linear_23_303)"/>
<defs>
<linearGradient id="paint0_linear_23_303" x1="24.78" y1="23.61" x2="88.41" y2="87.44" gradientUnits="userSpaceOnUse">
<stop stop-color="#387EB8"/>
<stop offset="1" stop-color="#366994"/>
</linearGradient>
<linearGradient id="paint1_linear_23_303" x1="63.45" y1="64.39" x2="131.66" y2="129.75" gradientUnits="userSpaceOnUse">
<stop stop-color="#FFE052"/>
<stop offset="1" stop-color="#FFC331"/>
</linearGradient>
</defs>
</svg>
