<svg width="153" height="153" viewBox="0 0 153 153" fill="none" xmlns="http://www.w3.org/2000/svg">
<path d="M128.29 12.17H25.29C18.3865 12.17 12.79 17.7664 12.79 24.67V127.67C12.79 134.574 18.3865 140.17 25.29 140.17H128.29C135.194 140.17 140.79 134.574 140.79 127.67V24.67C140.79 17.7664 135.194 12.17 128.29 12.17Z" fill="#3178C6"/>
<path d="M128.29 6.16998H25.29C15.0728 6.16998 6.79004 14.4527 6.79004 24.67V127.67C6.79004 137.887 15.0728 146.17 25.29 146.17H128.29C138.507 146.17 146.79 137.887 146.79 127.67V24.67C146.79 14.4527 138.507 6.16998 128.29 6.16998Z" fill="#3178C6"/>
<path d="M128.29 12.17C131.605 12.17 134.785 13.487 137.129 15.8312C139.473 18.1754 140.79 21.3548 140.79 24.67V127.67C140.79 130.985 139.473 134.165 137.129 136.509C134.785 138.853 131.605 140.17 128.29 140.17H25.29C21.9748 140.17 18.7954 138.853 16.4512 136.509C14.107 134.165 12.79 130.985 12.79 127.67V24.67C12.79 21.3548 14.107 18.1754 16.4512 15.8312C18.7954 13.487 21.9748 12.17 25.29 12.17H128.29ZM128.29 0.169983H25.29C18.7947 0.177922 12.5676 2.76175 7.97467 7.35468C3.38175 11.9476 0.797978 18.1746 0.790039 24.67V127.67C0.797978 134.165 3.38175 140.392 7.97467 144.985C12.5676 149.578 18.7947 152.162 25.29 152.17H128.29C134.785 152.162 141.012 149.578 145.605 144.985C150.198 140.392 152.782 134.165 152.79 127.67V24.67C152.782 18.1746 150.198 11.9476 145.605 7.35468C141.012 2.76175 134.785 0.177922 128.29 0.169983V0.169983Z" fill="white"/>
<path fill-rule="evenodd" clip-rule="evenodd" d="M92.03 114V126.51C94.3067 127.639 96.7355 128.43 99.24 128.86C102.14 129.391 105.082 129.652 108.03 129.64C110.902 129.656 113.768 129.368 116.58 128.78C119.1 128.278 121.506 127.319 123.68 125.95C125.689 124.653 127.348 122.88 128.51 120.79C130.584 116.455 130.857 111.476 129.27 106.94C128.605 105.241 127.609 103.691 126.34 102.38C124.978 100.985 123.43 99.7833 121.74 98.81C119.812 97.6729 117.807 96.6705 115.74 95.81C114.093 95.1433 112.62 94.4767 111.32 93.81C110.153 93.2442 109.038 92.5748 107.99 91.81C107.167 91.2377 106.452 90.5232 105.88 89.7C105.379 88.9561 105.117 88.0768 105.13 87.18C105.123 86.3548 105.356 85.5454 105.8 84.85C106.283 84.1217 106.926 83.513 107.68 83.07C108.612 82.5294 109.625 82.1411 110.68 81.92C111.963 81.6315 113.275 81.4939 114.59 81.51C116.895 81.5318 119.186 81.8683 121.4 82.51C122.571 82.8269 123.715 83.2382 124.82 83.74C125.899 84.2148 126.93 84.7908 127.9 85.46V73.76C125.883 73.002 123.791 72.459 121.66 72.14C119.087 71.7663 116.49 71.5891 113.89 71.61C111.044 71.6081 108.207 71.9438 105.44 72.61C102.949 73.1909 100.579 74.2065 98.44 75.61C96.343 76.982 94.6374 78.874 93.4894 81.1015C92.3415 83.329 91.7905 85.8161 91.89 88.32C91.8021 91.7854 92.9467 95.1695 95.12 97.87C97.2734 100.503 100.54 102.733 104.92 104.56C106.64 105.26 108.25 105.95 109.73 106.63C111.071 107.228 112.362 107.934 113.59 108.74C114.575 109.383 115.441 110.192 116.15 111.13C116.776 111.977 117.106 113.007 117.09 114.06C117.094 114.849 116.89 115.625 116.5 116.31C116.065 117.048 115.453 117.666 114.72 118.11C113.793 118.67 112.779 119.072 111.72 119.3C110.352 119.607 108.952 119.752 107.55 119.73C104.801 119.722 102.074 119.238 99.49 118.3C96.7914 117.325 94.2887 115.876 92.1 114.02L92.03 114ZM71.03 83.16H87.08V72.92H42.29V83.19H58.29V128.92H71.01L71.03 83.16Z" fill="white"/>
</svg>
