<svg width="153" height="191" viewBox="0 0 153 191" fill="none" xmlns="http://www.w3.org/2000/svg">
<path d="M128.29 50.17H25.29C18.3865 50.17 12.79 55.7664 12.79 62.67V165.67C12.79 172.574 18.3865 178.17 25.29 178.17H128.29C135.194 178.17 140.79 172.574 140.79 165.67V62.67C140.79 55.7664 135.194 50.17 128.29 50.17Z" fill="#3178C6"/>
<path d="M128.29 44.17H25.29C15.0728 44.17 6.79004 52.4527 6.79004 62.67V165.67C6.79004 175.887 15.0728 184.17 25.29 184.17H128.29C138.507 184.17 146.79 175.887 146.79 165.67V62.67C146.79 52.4527 138.507 44.17 128.29 44.17Z" fill="#3178C6"/>
<path d="M128.29 50.17C131.605 50.17 134.785 51.487 137.129 53.8312C139.473 56.1754 140.79 59.3548 140.79 62.67V165.67C140.79 168.985 139.473 172.165 137.129 174.509C134.785 176.853 131.605 178.17 128.29 178.17H25.29C21.9748 178.17 18.7954 176.853 16.4512 174.509C14.107 172.165 12.79 168.985 12.79 165.67V62.67C12.79 59.3548 14.107 56.1754 16.4512 53.8312C18.7954 51.487 21.9748 50.17 25.29 50.17H128.29ZM128.29 38.17H25.29C18.7947 38.1779 12.5676 40.7618 7.97467 45.3547C3.38175 49.9476 0.797978 56.1746 0.790039 62.67V165.67C0.797978 172.165 3.38175 178.392 7.97467 182.985C12.5676 187.578 18.7947 190.162 25.29 190.17H128.29C134.785 190.162 141.012 187.578 145.605 182.985C150.198 178.392 152.782 172.165 152.79 165.67V62.67C152.782 56.1746 150.198 49.9476 145.605 45.3547C141.012 40.7618 134.785 38.1779 128.29 38.17V38.17Z" fill="white"/>
<path fill-rule="evenodd" clip-rule="evenodd" d="M92.03 152V164.51C94.3067 165.639 96.7355 166.43 99.24 166.86C102.14 167.391 105.082 167.652 108.03 167.64C110.902 167.656 113.768 167.368 116.58 166.78C119.1 166.278 121.506 165.319 123.68 163.95C125.689 162.653 127.348 160.88 128.51 158.79C130.584 154.455 130.857 149.476 129.27 144.94C128.605 143.241 127.609 141.691 126.34 140.38C124.978 138.985 123.43 137.783 121.74 136.81C119.812 135.673 117.807 134.671 115.74 133.81C114.093 133.143 112.62 132.477 111.32 131.81C110.153 131.244 109.038 130.575 107.99 129.81C107.167 129.238 106.452 128.523 105.88 127.7C105.379 126.956 105.117 126.077 105.13 125.18C105.123 124.355 105.356 123.545 105.8 122.85C106.283 122.122 106.926 121.513 107.68 121.07C108.612 120.529 109.625 120.141 110.68 119.92C111.963 119.631 113.275 119.494 114.59 119.51C116.895 119.532 119.186 119.868 121.4 120.51C122.571 120.827 123.715 121.238 124.82 121.74C125.899 122.215 126.93 122.791 127.9 123.46V111.76C125.883 111.002 123.791 110.459 121.66 110.14C119.087 109.766 116.49 109.589 113.89 109.61C111.044 109.608 108.207 109.944 105.44 110.61C102.949 111.191 100.579 112.206 98.44 113.61C96.343 114.982 94.6374 116.874 93.4894 119.102C92.3415 121.329 91.7905 123.816 91.89 126.32C91.8021 129.785 92.9467 133.169 95.12 135.87C97.2734 138.503 100.54 140.733 104.92 142.56C106.64 143.26 108.25 143.95 109.73 144.63C111.071 145.228 112.362 145.934 113.59 146.74C114.575 147.383 115.441 148.192 116.15 149.13C116.776 149.977 117.106 151.007 117.09 152.06C117.094 152.849 116.89 153.625 116.5 154.31C116.065 155.048 115.453 155.666 114.72 156.11C113.793 156.67 112.779 157.072 111.72 157.3C110.352 157.607 108.952 157.752 107.55 157.73C104.801 157.722 102.074 157.238 99.49 156.3C96.7914 155.325 94.2887 153.876 92.1 152.02L92.03 152ZM71.03 121.16H87.08V110.92H42.29V121.19H58.29V166.92H71.01L71.03 121.16Z" fill="white"/>
</svg>
