<svg width="24" height="24" viewBox="0 0 24 24" fill="none" xmlns="http://www.w3.org/2000/svg">
<path d="M21 10.4997H17.8125C17.4804 9.21117 16.7294 8.06958 15.6777 7.25449C14.6259 6.4394 13.333 5.99707 12.0023 5.99707C10.6717 5.99707 9.37881 6.4394 8.32703 7.25449C7.27525 8.06958 6.52426 9.21117 6.19219 10.4997H3C2.60218 10.4997 2.22064 10.6577 1.93934 10.9391C1.65804 11.2204 1.5 11.6019 1.5 11.9997C1.5 12.3975 1.65804 12.7791 1.93934 13.0604C2.22064 13.3417 2.60218 13.4997 3 13.4997H6.18984C6.52111 14.7893 7.2719 15.9321 8.324 16.748C9.3761 17.564 10.6697 18.0069 12.0012 18.0069C13.3326 18.0069 14.6262 17.564 15.6783 16.748C16.7304 15.9321 17.4812 14.7893 17.8125 13.4997H21C21.3978 13.4997 21.7794 13.3417 22.0607 13.0604C22.342 12.7791 22.5 12.3975 22.5 11.9997C22.5 11.6019 22.342 11.2204 22.0607 10.9391C21.7794 10.6577 21.3978 10.4997 21 10.4997ZM12 14.9997C11.4067 14.9997 10.8266 14.8238 10.3333 14.4941C9.83994 14.1645 9.45542 13.6959 9.22836 13.1478C9.0013 12.5996 8.94189 11.9964 9.05764 11.4144C9.1734 10.8325 9.45912 10.2979 9.87868 9.87839C10.2982 9.45883 10.8328 9.17311 11.4147 9.05735C11.9967 8.9416 12.5999 9.00101 13.148 9.22807C13.6962 9.45513 14.1648 9.83965 14.4944 10.333C14.8241 10.8263 15 11.4064 15 11.9997C14.9991 12.7951 14.6828 13.5577 14.1204 14.1201C13.5579 14.6825 12.7954 14.9988 12 14.9997V14.9997Z" fill="#737373"/>
</svg>
