<svg width="24" height="24" viewBox="0 0 24 24" fill="none" xmlns="http://www.w3.org/2000/svg">
<path d="M18.0469 10.4997C17.5215 10.5 17.0055 10.6382 16.5503 10.9005C16.0951 11.1629 15.7169 11.5401 15.4533 11.9946C13.4738 11.9378 11.46 11.3983 10.0059 10.526C8.49656 9.62034 7.67578 8.46346 7.56141 7.08768C8.13085 6.75465 8.57465 6.2432 8.82411 5.6325C9.07357 5.02181 9.11479 4.34591 8.94137 3.70943C8.76796 3.07294 8.38959 2.51137 7.86483 2.11161C7.34006 1.71186 6.69817 1.49621 6.03848 1.49806C5.3788 1.49991 4.73812 1.71914 4.21561 2.12182C3.69309 2.52451 3.31787 3.0882 3.14802 3.72564C2.97817 4.36309 3.02317 5.03874 3.27605 5.64803C3.52892 6.25732 3.97557 6.76628 4.54688 7.09612V16.9033C3.97495 17.2335 3.52796 17.7432 3.27524 18.3533C3.02251 18.9635 2.97817 19.6399 3.1491 20.2778C3.32002 20.9157 3.69666 21.4794 4.22059 21.8814C4.74452 22.2835 5.38647 22.5014 6.04688 22.5014C6.70728 22.5014 7.34923 22.2835 7.87316 21.8814C8.39709 21.4794 8.77373 20.9157 8.94465 20.2778C9.11558 19.6399 9.07124 18.9635 8.81851 18.3533C8.56579 17.7432 8.1188 17.2335 7.54688 16.9033V12.4755C9.645 14.0692 12.5756 14.9308 15.4481 14.9955C15.7108 15.4522 16.0892 15.8317 16.5451 16.0958C17.0011 16.3598 17.5185 16.4991 18.0454 16.4997C18.5723 16.5003 19.0901 16.3621 19.5466 16.099C20.0031 15.8359 20.3822 15.4572 20.6459 15.0011C20.9096 14.5449 21.0485 14.0273 21.0486 13.5004C21.0488 12.9735 20.9101 12.4559 20.6467 11.9996C20.3832 11.5433 20.0042 11.1645 19.5478 10.9012C19.0914 10.6379 18.5738 10.4994 18.0469 10.4997ZM6.04688 2.99971C6.34355 2.99971 6.63356 3.08769 6.88023 3.25251C7.1269 3.41733 7.31916 3.6516 7.4327 3.92569C7.54623 4.19978 7.57593 4.50138 7.51805 4.79235C7.46018 5.08332 7.31731 5.3506 7.10754 5.56037C6.89776 5.77015 6.63048 5.91301 6.33951 5.97089C6.04854 6.02877 5.74694 5.99906 5.47285 5.88553C5.19876 5.772 4.96449 5.57974 4.79967 5.33307C4.63485 5.0864 4.54688 4.79639 4.54688 4.49971C4.54688 4.10189 4.70491 3.72036 4.98622 3.43905C5.26752 3.15775 5.64905 2.99971 6.04688 2.99971ZM6.04688 20.9997C5.7502 20.9997 5.46019 20.9117 5.21352 20.7469C4.96685 20.5821 4.77459 20.3478 4.66106 20.0737C4.54753 19.7997 4.51782 19.498 4.5757 19.2071C4.63358 18.9161 4.77644 18.6488 4.98622 18.4391C5.19599 18.2293 5.46327 18.0864 5.75424 18.0285C6.04521 17.9707 6.34681 18.0004 6.6209 18.1139C6.89499 18.2274 7.12926 18.4197 7.29408 18.6664C7.4589 18.913 7.54688 19.203 7.54688 19.4997C7.54688 19.8975 7.38884 20.2791 7.10754 20.5604C6.82623 20.8417 6.4447 20.9997 6.04688 20.9997ZM18.0469 14.9997C17.7502 14.9997 17.4602 14.9117 17.2135 14.7469C16.9668 14.5821 16.7746 14.3478 16.6611 14.0737C16.5475 13.7997 16.5178 13.498 16.5757 13.2071C16.6336 12.9161 16.7764 12.6488 16.9862 12.4391C17.196 12.2293 17.4633 12.0864 17.7542 12.0285C18.0452 11.9707 18.3468 12.0004 18.6209 12.1139C18.895 12.2274 19.1293 12.4197 19.2941 12.6664C19.4589 12.913 19.5469 13.203 19.5469 13.4997C19.5469 13.8975 19.3888 14.2791 19.1075 14.5604C18.8262 14.8417 18.4447 14.9997 18.0469 14.9997Z" fill="#737373"/>
</svg>
