<svg width="25" height="24" viewBox="0 0 25 24" fill="none" xmlns="http://www.w3.org/2000/svg">
<g clip-path="url(#clip0_38_431)">
<path d="M5.03988 13.4353C4.97817 13.39 4.90405 13.3646 4.8275 13.3627C4.75095 13.3607 4.67564 13.3822 4.61168 13.4243C4.54772 13.4665 4.49819 13.5271 4.46974 13.5982C4.44129 13.6693 4.43529 13.7474 4.45254 13.822C5.28457 17.4975 8.5766 20.25 12.5 20.25C13.3332 20.2503 14.1616 20.1238 14.9568 19.875C15.0301 19.8524 15.0948 19.8078 15.142 19.7472C15.1892 19.6866 15.2167 19.6131 15.2208 19.5364C15.2248 19.4597 15.2052 19.3836 15.1646 19.3184C15.124 19.2532 15.0644 19.2021 14.9938 19.1719C13.2368 18.3975 11.5236 17.5273 9.86192 16.5652C8.19892 15.6102 6.58919 14.5654 5.03988 13.4353ZM23.5963 15.9145C23.3999 15.653 23.1693 15.3783 22.9072 15.0928C22.8216 14.9985 22.7131 14.9278 22.5923 14.8876C22.4714 14.8473 22.3422 14.8389 22.2171 14.863C22.092 14.8872 21.9753 14.9431 21.8781 15.0255C21.7809 15.1079 21.7066 15.2139 21.6622 15.3333C21.6622 15.3408 21.6571 15.3478 21.6543 15.3553C21.6075 15.4823 21.5966 15.6196 21.6226 15.7524C21.6487 15.8852 21.7107 16.0082 21.8019 16.1081C22.8679 17.28 23.0404 17.9133 22.9963 18.0469C22.9025 18.1514 22.1971 18.3698 20.2705 17.8814C19.9946 17.8114 19.6927 17.7261 19.3649 17.6255C19.1536 17.5605 18.9382 17.4903 18.7185 17.415C19.0636 17.0192 19.3703 16.5915 19.6344 16.1377C19.6424 16.1241 19.6508 16.1105 19.6588 16.0964C20.3744 14.8498 20.7506 13.4374 20.75 12C20.7502 11.7025 20.7346 11.4052 20.7032 11.1094C20.2546 6.97641 16.7469 3.75 12.5 3.75C10.6981 3.74899 8.94572 4.34008 7.51254 5.43234C6.64389 6.09349 5.91391 6.91919 5.36426 7.86234C5.35676 7.87594 5.34832 7.88953 5.34035 7.90313C5.07912 8.35823 4.86204 8.83729 4.69207 9.33375C4.51739 9.18156 4.34879 9.03047 4.18629 8.88047C3.93363 8.6461 3.70957 8.42906 3.51035 8.22422C2.12426 6.80578 1.95926 6.08625 2.00285 5.95313C2.0966 5.84859 2.73129 5.67797 4.28192 6.01453C4.41449 6.04368 4.55252 6.03589 4.68096 5.992C4.80941 5.94811 4.92334 5.86981 5.01035 5.76563L5.02723 5.745C5.1081 5.64781 5.16265 5.53147 5.18562 5.40713C5.2086 5.2828 5.19924 5.15465 5.15844 5.03497C5.11763 4.9153 5.04676 4.80812 4.95262 4.72371C4.85848 4.63931 4.74423 4.58051 4.62082 4.55297C4.25278 4.46958 3.88074 4.40496 3.50613 4.35938C2.06613 4.19391 1.12348 4.4775 0.703947 5.20313C0.552072 5.46469 0.406291 5.91047 0.576447 6.54375C0.828166 7.48406 1.72535 8.625 2.9952 9.82031C3.39973 10.2014 3.84176 10.5877 4.31332 10.9753C4.65645 11.2566 5.01645 11.5406 5.38676 11.8228C5.63395 12.0103 5.88629 12.1978 6.14379 12.3853C6.40129 12.5728 6.66223 12.7569 6.9266 12.9375C8.1177 13.763 9.37629 14.5556 10.6105 15.2667C11.0586 15.5248 11.5061 15.7748 11.953 16.0167C12.3999 16.2586 12.8432 16.49 13.2829 16.7109C14.3094 17.2266 15.3149 17.6916 16.2763 18.0905C16.6885 18.2617 17.0918 18.4205 17.4861 18.5667C18.0435 18.7739 18.5816 18.9563 19.0944 19.11L19.146 19.1255C20.3521 19.4845 21.3688 19.6734 22.1685 19.688H22.25C23.2644 19.688 23.9516 19.3889 24.2929 18.7973C24.7189 18.0652 24.4841 17.0948 23.5963 15.9145Z" fill="#737373"/>
</g>
<defs>
<clipPath id="clip0_38_431">
<rect width="24" height="24" fill="white" transform="translate(0.5)"/>
</clipPath>
</defs>
</svg>
