<svg width="24" height="24" viewBox="0 0 24 24" fill="none" xmlns="http://www.w3.org/2000/svg">
<path d="M9 4.49965C9.00029 3.97297 8.86193 3.4555 8.59881 2.99925C8.33569 2.543 7.95709 2.16406 7.50109 1.90053C7.04508 1.637 6.52773 1.49817 6.00104 1.49798C5.47436 1.4978 4.95692 1.63628 4.50072 1.89949C4.04453 2.1627 3.66567 2.54138 3.40224 2.99744C3.1388 3.4535 3.00007 3.97088 3 4.49757C2.99993 5.02425 3.13851 5.54166 3.40182 5.9978C3.66513 6.45394 4.04388 6.83272 4.5 7.09606V16.9032C3.92808 17.2334 3.48109 17.7431 3.22836 18.3533C2.97564 18.9634 2.9313 19.6399 3.10222 20.2778C3.27315 20.9157 3.64978 21.4794 4.17372 21.8814C4.69765 22.2834 5.3396 22.5013 6 22.5013C6.6604 22.5013 7.30235 22.2834 7.82628 21.8814C8.35022 21.4794 8.72685 20.9157 8.89778 20.2778C9.0687 19.6399 9.02436 18.9634 8.77164 18.3533C8.51891 17.7431 8.07193 17.2334 7.5 16.9032V7.09606C7.95581 6.8329 8.33437 6.45444 8.59766 5.99871C8.86095 5.54297 8.99971 5.02598 9 4.49965ZM6 2.99965C6.29667 2.99965 6.58668 3.08763 6.83336 3.25245C7.08003 3.41727 7.27229 3.65154 7.38582 3.92563C7.49935 4.19972 7.52906 4.50132 7.47118 4.79229C7.4133 5.08326 7.27044 5.35053 7.06066 5.56031C6.85088 5.77009 6.58361 5.91295 6.29264 5.97083C6.00166 6.02871 5.70006 5.999 5.42598 5.88547C5.15189 5.77194 4.91762 5.57968 4.7528 5.33301C4.58797 5.08633 4.5 4.79632 4.5 4.49965C4.5 4.10183 4.65804 3.7203 4.93934 3.43899C5.22065 3.15769 5.60218 2.99965 6 2.99965ZM6 20.9997C5.70333 20.9997 5.41332 20.9117 5.16665 20.7469C4.91997 20.582 4.72771 20.3478 4.61418 20.0737C4.50065 19.7996 4.47095 19.498 4.52882 19.207C4.5867 18.916 4.72956 18.6488 4.93934 18.439C5.14912 18.2292 5.41639 18.0864 5.70737 18.0285C5.99834 17.9706 6.29994 18.0003 6.57403 18.1138C6.84811 18.2274 7.08238 18.4196 7.24721 18.6663C7.41203 18.913 7.5 19.203 7.5 19.4997C7.5 19.8975 7.34197 20.279 7.06066 20.5603C6.77936 20.8416 6.39783 20.9997 6 20.9997ZM19.5 16.9032V7.31215C19.4988 6.16879 19.044 5.07261 18.2355 4.26413C17.427 3.45564 16.3309 3.00089 15.1875 2.99965H14.25V1.49965C14.2499 1.35137 14.2059 1.20643 14.1235 1.08316C14.0411 0.959884 13.924 0.863808 13.787 0.807071C13.65 0.750334 13.4992 0.735482 13.3538 0.764392C13.2083 0.793303 13.0747 0.864677 12.9698 0.969497L9.96984 3.9695C9.8293 4.11013 9.75035 4.30083 9.75035 4.49965C9.75035 4.69848 9.8293 4.88917 9.96984 5.02981L12.9698 8.02981C13.0747 8.13463 13.2083 8.206 13.3538 8.23491C13.4992 8.26382 13.65 8.24897 13.787 8.19223C13.924 8.1355 14.0411 8.03942 14.1235 7.91615C14.2059 7.79288 14.2499 7.64794 14.25 7.49965V5.99965H15.1875C15.5356 5.99965 15.8694 6.13793 16.1156 6.38407C16.3617 6.63022 16.5 6.96406 16.5 7.31215V16.9032C15.9281 17.2334 15.4811 17.7431 15.2284 18.3533C14.9756 18.9634 14.9313 19.6399 15.1022 20.2778C15.2731 20.9157 15.6498 21.4794 16.1737 21.8814C16.6976 22.2834 17.3396 22.5013 18 22.5013C18.6604 22.5013 19.3024 22.2834 19.8263 21.8814C20.3502 21.4794 20.7269 20.9157 20.8978 20.2778C21.0687 19.6399 21.0244 18.9634 20.7716 18.3533C20.5189 17.7431 20.0719 17.2334 19.5 16.9032ZM18 20.9997C17.7033 20.9997 17.4133 20.9117 17.1666 20.7469C16.92 20.582 16.7277 20.3478 16.6142 20.0737C16.5006 19.7996 16.4709 19.498 16.5288 19.207C16.5867 18.916 16.7296 18.6488 16.9393 18.439C17.1491 18.2292 17.4164 18.0864 17.7074 18.0285C17.9983 17.9706 18.2999 18.0003 18.574 18.1138C18.8481 18.2274 19.0824 18.4196 19.2472 18.6663C19.412 18.913 19.5 19.203 19.5 19.4997C19.5 19.8975 19.342 20.279 19.0607 20.5603C18.7794 20.8416 18.3978 20.9997 18 20.9997Z" fill="#737373"/>
</svg>
