<svg width="25" height="24" viewBox="0 0 25 24" fill="none" xmlns="http://www.w3.org/2000/svg">
<path d="M22.296 9.982C21.349 5.357 17.229 2 12.5 2C6.986 2 2.5 6.486 2.5 12C2.5 16.729 5.857 20.849 10.482 21.796C10.549 21.81 10.617 21.817 10.683 21.817C10.946 21.817 11.201 21.713 11.39 21.524L22.023 10.891C22.261 10.653 22.363 10.313 22.296 9.982ZM11.5 18C11.5 17.455 11.555 16.912 11.662 16.388C11.767 15.873 11.925 15.368 12.128 14.888C12.329 14.412 12.578 13.954 12.865 13.529C13.155 13.101 13.484 12.703 13.843 12.343C14.202 11.985 14.601 11.655 15.027 11.366C15.455 11.078 15.913 10.829 16.387 10.628C16.868 10.425 17.373 10.268 17.888 10.162C18.592 10.017 19.33 9.979 20.058 10.028L11.529 18.557C11.516 18.372 11.5 18.187 11.5 18ZM4.5 12C4.5 7.589 8.089 4 12.5 4C15.409 4 18.028 5.589 19.429 8.005C18.774 8.009 18.119 8.073 17.486 8.203C16.843 8.335 16.212 8.531 15.607 8.786C15.013 9.038 14.443 9.349 13.908 9.709C13.375 10.07 12.878 10.48 12.429 10.929C11.98 11.378 11.571 11.874 11.208 12.409C10.849 12.942 10.538 13.513 10.286 14.107C10.031 14.711 9.835 15.342 9.703 15.985C9.568 16.643 9.5 17.32 9.5 18C9.5 18.491 9.548 18.979 9.619 19.461C6.589 18.288 4.5 15.336 4.5 12Z" fill="#737373"/>
</svg>
