<svg width="64" height="64" viewBox="0 0 64 64" fill="none" xmlns="http://www.w3.org/2000/svg">
<g clip-path="url(#clip0_33_230)">
<path d="M26.72 63.68C18.6239 62.5469 11.2683 58.3582 6.16284 51.9734C1.05736 45.5885 -1.41086 37.4918 -0.735348 29.3447C-0.0598315 21.1975 3.7082 13.6179 9.79552 8.16106C15.8828 2.70426 23.8278 -0.215834 32 -4.0686e-06C40.1723 -0.215834 48.1172 2.70426 54.2046 8.16106C60.2919 13.6179 64.0599 21.1975 64.7354 29.3447C65.411 37.4918 62.9427 45.5885 57.8373 51.9734C52.7318 58.3582 45.3762 62.5469 37.28 63.68L35.52 62.24H28.48L26.72 63.68Z" fill="url(#paint0_linear_33_230)"/>
<path d="M44.48 40.96L45.92 32H37.44V25.76C37.44 23.2 38.4 21.28 42.24 21.28H46.4V13.12C44.0704 12.7482 41.7184 12.5344 39.36 12.48C32 12.48 26.88 16.96 26.88 24.96V32H18.88V40.96H26.88V63.52C30.3709 64.16 33.9491 64.16 37.44 63.52V40.96H44.48Z" fill="white"/>
</g>
<defs>
<linearGradient id="paint0_linear_33_230" x1="31.68" y1="61.545" x2="31.68" y2="-0.193604" gradientUnits="userSpaceOnUse">
<stop stop-color="#0062E0"/>
<stop offset="1" stop-color="#19AFFF"/>
</linearGradient>
<clipPath id="clip0_33_230">
<rect width="64" height="64" fill="white"/>
</clipPath>
</defs>
</svg>
