<svg width="64" height="64" viewBox="0 0 64 64" fill="none" xmlns="http://www.w3.org/2000/svg">
<g clip-path="url(#clip0_33_256)">
<path d="M31.9951 0C18.6507 0 14.767 -1.46697e-08 13.9843 0.0787571C11.2426 0.305184 9.55422 0.738348 7.67882 1.66374C6.30183 2.33173 5.05632 3.24211 4.00185 4.35133C1.96106 6.48089 0.661258 9.21168 0.295339 12.1384C0.0787571 13.6151 0.014767 13.94 0 21.5794C0 24.1194 0 27.4813 0 31.9951C0 45.3444 -1.46697e-08 49.2478 0.0787571 50.0058C0.305184 52.6737 0.718659 54.3522 1.60468 56.1883C2.46078 57.9347 3.68436 59.4755 5.19157 60.7049C6.69878 61.9342 8.45398 62.8232 10.3369 63.3109C11.862 63.676 13.4208 63.8822 14.9885 63.9262C15.781 63.9606 23.8486 63.9852 31.936 63.9852C40.0234 63.9852 48.1058 63.9852 48.8737 63.936C50.4968 63.9048 52.1113 63.6935 53.6877 63.306C55.5768 62.8215 57.3374 61.9305 58.8465 60.6952C60.3556 59.4599 61.5768 57.91 62.4249 56.1538C63.3271 54.2531 63.8408 52.1914 63.936 50.0895C63.9803 49.5382 63.9951 40.7371 63.9951 31.9705C63.9951 23.2038 63.9951 14.4175 63.936 13.8662C63.8439 11.7416 63.3196 9.65803 62.3953 7.74281C61.7195 6.33475 60.7901 5.06326 59.6536 3.992C57.5212 1.95982 54.7938 0.664283 51.8714 0.295339C50.3947 0.0787571 50.0748 0.014767 42.4255 0H31.9951Z" fill="url(#paint0_radial_33_256)"/>
<path d="M31.9951 0C18.6507 0 14.767 -1.46697e-08 13.9843 0.0787571C11.2426 0.305184 9.55422 0.738348 7.67882 1.66374C6.30183 2.33173 5.05632 3.24211 4.00185 4.35133C1.96106 6.48089 0.661258 9.21168 0.295339 12.1384C0.0787571 13.6151 0.014767 13.94 0 21.5794C0 24.1194 0 27.4813 0 31.9951C0 45.3444 -1.46697e-08 49.2478 0.0787571 50.0058C0.305184 52.6737 0.718659 54.3522 1.60468 56.1883C2.46078 57.9347 3.68436 59.4755 5.19157 60.7049C6.69878 61.9342 8.45398 62.8232 10.3369 63.3109C11.862 63.676 13.4208 63.8822 14.9885 63.9262C15.781 63.9606 23.8486 63.9852 31.936 63.9852C40.0234 63.9852 48.1058 63.9852 48.8737 63.936C50.4968 63.9048 52.1113 63.6935 53.6877 63.306C55.5768 62.8215 57.3374 61.9305 58.8465 60.6952C60.3556 59.4599 61.5768 57.91 62.4249 56.1538C63.3271 54.2531 63.8408 52.1914 63.936 50.0895C63.9803 49.5382 63.9951 40.7371 63.9951 31.9705C63.9951 23.2038 63.9951 14.4175 63.936 13.8662C63.8439 11.7416 63.3196 9.65803 62.3953 7.74281C61.7195 6.33475 60.7901 5.06326 59.6536 3.992C57.5212 1.95982 54.7938 0.664283 51.8714 0.295339C50.3947 0.0787571 50.0748 0.014767 42.4255 0H31.9951Z" fill="url(#paint1_radial_33_256)"/>
<path d="M31.9951 8.36795C25.596 8.36795 24.774 8.39748 22.2538 8.5107C20.2938 8.54766 18.3544 8.91888 16.5193 9.60838C14.9558 10.2167 13.5358 11.1435 12.3494 12.3298C11.1631 13.5161 10.2364 14.9361 9.62803 16.4996C8.93854 18.3347 8.56732 20.2741 8.53036 22.2341C8.39745 24.774 8.36792 25.5961 8.36792 31.9951C8.36792 38.3941 8.39745 39.2161 8.51067 41.7364C8.5504 43.6961 8.92153 45.635 9.60834 47.4709C10.2167 49.0344 11.1434 50.4544 12.3298 51.6407C13.5161 52.827 14.9361 53.7538 16.4996 54.3621C18.3347 55.0516 20.2741 55.4228 22.2341 55.4598C24.7543 55.573 25.5567 55.6025 31.9754 55.6025C38.3941 55.6025 39.1964 55.573 41.7166 55.4598C43.6767 55.4228 45.616 55.0516 47.4511 54.3621C49.0147 53.7538 50.4347 52.827 51.621 51.6407C52.8073 50.4544 53.734 49.0344 54.3424 47.4709C55.0268 45.6343 55.3979 43.6958 55.4401 41.7364C55.5533 39.2161 55.5828 38.4138 55.5828 31.9951C55.5828 25.5764 55.5533 24.774 55.4401 22.2538C55.3979 20.2943 55.0268 18.3559 54.3424 16.5193C53.7485 14.9415 52.818 13.512 51.6154 12.3304C50.4367 11.1279 49.0084 10.1987 47.4314 9.60838C45.5944 8.91973 43.6536 8.54854 41.692 8.5107C39.2112 8.39748 38.3941 8.36795 31.9951 8.36795ZM29.8785 12.6258H31.9951C38.3055 12.6258 39.0537 12.6504 41.5444 12.7636C43.0422 12.7794 44.526 13.0542 45.9301 13.5758C46.9493 13.9687 47.8748 14.5707 48.6471 15.343C49.4194 16.1154 50.0215 17.0409 50.4144 18.06C50.9359 19.4642 51.2107 20.948 51.2266 22.4458C51.3398 24.9365 51.3644 25.6847 51.3644 31.9902C51.3644 38.2957 51.3644 39.0438 51.2266 41.5345C51.2107 43.0324 50.9359 44.5162 50.4144 45.9203C50.0203 46.9382 49.4179 47.8625 48.6457 48.6339C47.8734 49.4053 46.9485 50.0067 45.9301 50.3996C44.5258 50.9211 43.0423 51.1975 41.5444 51.2167C39.0537 51.33 38.3055 51.3546 31.9951 51.3546C25.6846 51.3546 24.9414 51.3546 22.4507 51.2167C20.9512 51.1968 19.4662 50.9204 18.06 50.3996C17.0416 50.0067 16.1167 49.4053 15.3444 48.6339C14.5722 47.8625 13.9698 46.9382 13.5757 45.9203C13.0566 44.5155 12.7819 43.0321 12.7636 41.5345C12.6503 39.0438 12.6257 38.2907 12.6257 31.9852C12.6257 25.6797 12.6503 24.9316 12.7636 22.4409C12.7826 20.9418 13.0573 19.4569 13.5757 18.0502C13.9687 17.031 14.5707 16.1055 15.343 15.3332C16.1153 14.5608 17.0408 13.9588 18.06 13.5659C19.466 13.045 20.9513 12.7703 22.4507 12.7537C24.6313 12.6553 25.473 12.6258 29.8785 12.6208V12.6258ZM44.611 16.5636C44.0502 16.5636 43.502 16.7299 43.0358 17.0414C42.5695 17.353 42.2061 17.7958 41.9915 18.3139C41.7769 18.8319 41.7208 19.402 41.8302 19.952C41.9396 20.502 42.2096 21.0072 42.6061 21.4037C43.0026 21.8002 43.5078 22.0702 44.0578 22.1796C44.6078 22.289 45.1779 22.2329 45.696 22.0183C46.214 21.8037 46.6568 21.4403 46.9684 20.9741C47.2799 20.5078 47.4462 19.9596 47.4462 19.3989C47.4462 19.0265 47.3729 18.6579 47.2304 18.3139C47.0879 17.9699 46.8791 17.6573 46.6158 17.394C46.3525 17.1308 46.04 16.9219 45.696 16.7794C45.352 16.6369 44.9833 16.5636 44.611 16.5636ZM31.9951 19.8616C29.5953 19.8616 27.2494 20.5732 25.254 21.9064C23.2587 23.2397 21.7035 25.1347 20.7851 27.3518C19.8668 29.5689 19.6265 32.0085 20.0947 34.3622C20.5629 36.7159 21.7185 38.8779 23.4154 40.5748C25.1123 42.2717 27.2743 43.4273 29.6279 43.8955C31.9816 44.3636 34.4212 44.1233 36.6383 43.205C38.8555 42.2866 40.7505 40.7315 42.0837 38.7361C43.417 36.7408 44.1286 34.3949 44.1286 31.9951C44.1286 28.7771 42.8502 25.6909 40.5747 23.4154C38.2993 21.1399 35.2131 19.8616 31.9951 19.8616ZM31.9951 24.1194C33.5527 24.1194 35.0754 24.5813 36.3706 25.4467C37.6657 26.3121 38.6752 27.5421 39.2713 28.9812C39.8674 30.4203 40.0233 32.0038 39.7194 33.5316C39.4155 35.0593 38.6655 36.4626 37.564 37.5641C36.4626 38.6655 35.0593 39.4156 33.5315 39.7195C32.0038 40.0234 30.4202 39.8674 28.9811 39.2713C27.542 38.6752 26.312 37.6657 25.4466 36.3706C24.5812 35.0754 24.1193 33.5528 24.1193 31.9951C24.1193 29.9063 24.9491 27.9031 26.4261 26.4261C27.9031 24.9491 29.9063 24.1194 31.9951 24.1194Z" fill="white"/>
</g>
<defs>
<radialGradient id="paint0_radial_33_256" cx="0" cy="0" r="1" gradientUnits="userSpaceOnUse" gradientTransform="translate(16.1129 68.3069) rotate(-90) scale(63.3503 58.8709)">
<stop stop-color="#FFDD55"/>
<stop offset="0.1" stop-color="#FFDD55"/>
<stop offset="0.5" stop-color="#FF543E"/>
<stop offset="1" stop-color="#C837AB"/>
</radialGradient>
<radialGradient id="paint1_radial_33_256" cx="0" cy="0" r="1" gradientUnits="userSpaceOnUse" gradientTransform="translate(-10.8657 4.44761) rotate(78.9436) scale(28.3622 116.834)">
<stop stop-color="#3771C8"/>
<stop offset="0.13" stop-color="#3771C8"/>
<stop offset="1" stop-color="#6600FF" stop-opacity="0"/>
</radialGradient>
<clipPath id="clip0_33_256">
<rect width="64" height="63.9852" fill="white"/>
</clipPath>
</defs>
</svg>
