<svg width="64" height="53" viewBox="0 0 64 53" fill="none" xmlns="http://www.w3.org/2000/svg">
<g clip-path="url(#clip0_33_245)">
<path d="M57.4609 12.9456C57.4999 13.5098 57.4999 14.074 57.4999 14.6434C57.4999 31.9935 44.2917 52.0034 20.1399 52.0034C12.9997 52.0124 6.00781 49.9653 0 46.1065C1.03542 46.2307 2.07722 46.294 3.12005 46.2963C9.03538 46.3021 14.7808 44.3186 19.4327 40.6646C16.6927 40.6131 14.0372 39.7064 11.8378 38.0715C9.63834 36.4366 8.00484 34.1552 7.16571 31.5463C9.13301 31.9256 11.1611 31.8482 13.0938 31.3201C10.1226 30.72 7.4504 29.1105 5.53062 26.7647C3.61084 24.4188 2.56165 21.4811 2.56104 18.4499V18.2835C4.38716 19.3007 6.43095 19.8643 8.52033 19.9267C5.7405 18.0691 3.77289 15.2221 3.01793 11.9651C2.26297 8.70811 2.77737 5.2858 4.45647 2.39465C7.75287 6.45111 11.8657 9.76877 16.5279 12.1321C21.1901 14.4954 26.2972 15.8516 31.5177 16.1125C30.8648 13.2977 31.1577 10.3463 32.351 7.71474C33.5443 5.0832 35.5715 2.91822 38.119 1.55476C40.6666 0.191297 43.5924 -0.294664 46.444 0.172059C49.2955 0.638783 51.9137 2.03218 53.8936 4.13668C56.8342 3.55612 59.6541 2.4781 62.232 0.949025C61.2516 3.98917 59.2004 6.56977 56.4599 8.21094C59.0627 7.90423 61.6046 7.20741 64 6.14391C62.2418 8.7817 60.0275 11.085 57.4609 12.9456Z" fill="#1D9BF0"/>
</g>
<defs>
<clipPath id="clip0_33_245">
<rect width="64" height="52.0034" fill="white"/>
</clipPath>
</defs>
</svg>
